<svg width="32" height="32" viewBox="0 0 32 32" fill="none" xmlns="http://www.w3.org/2000/svg">
<path fill-rule="evenodd" clip-rule="evenodd" d="M18.1213 16L24.5313 9.59L25.8531 8.26813C26.0481 8.07313 26.0481 7.75625 25.8531 7.56125L24.4388 6.14688C24.2438 5.95188 23.9269 5.95188 23.7319 6.14688L16 13.8788L8.26813 6.14625C8.07313 5.95125 7.75625 5.95125 7.56125 6.14625L6.14625 7.56063C5.95125 7.75563 5.95125 8.0725 6.14625 8.2675L13.8788 16L6.14625 23.7319C5.95125 23.9269 5.95125 24.2438 6.14625 24.4388L7.56063 25.8531C7.75563 26.0481 8.0725 26.0481 8.2675 25.8531L16 18.1213L22.41 24.5313L23.7319 25.8531C23.9269 26.0481 24.2438 26.0481 24.4388 25.8531L25.8531 24.4388C26.0481 24.2438 26.0481 23.9269 25.8531 23.7319L18.1213 16Z" fill="#161616"/>
</svg>
