<svg width="32" height="32" viewBox="0 0 32 32" fill="none" xmlns="http://www.w3.org/2000/svg">
<path d="M9.71062 26.2755L11.2542 24.732L7.26806 20.7459L5.7245 22.2894V24.1044H7.89566V26.2755H9.71062ZM18.5818 10.5347C18.5818 10.2859 18.4574 10.1615 18.2087 10.1615C18.0956 10.1615 17.9995 10.2011 17.9203 10.2802L8.72681 19.4737C8.64765 19.5529 8.60807 19.649 8.60807 19.7621C8.60807 20.0109 8.73246 20.1352 8.98124 20.1352C9.09432 20.1352 9.19044 20.0957 9.2696 20.0165L18.4631 10.823C18.5423 10.7439 18.5818 10.6477 18.5818 10.5347ZM17.6659 7.27791L24.7221 14.3342L10.6096 28.4467H3.55334V21.3904L17.6659 7.27791ZM29.251 8.90628C29.251 9.50561 29.0418 10.0145 28.6234 10.4329L25.8077 13.2486L18.7515 6.19233L21.5672 3.39357C21.9743 2.96387 22.4831 2.74901 23.0938 2.74901C23.6931 2.74901 24.2076 2.96387 24.6373 3.39357L28.6234 7.36272C29.0418 7.80374 29.251 8.31826 29.251 8.90628Z" fill="#161616"/>
</svg>
