<svg width="32" height="32" viewBox="0 0 32 32" fill="none" xmlns="http://www.w3.org/2000/svg">
<path fill-rule="evenodd" clip-rule="evenodd" d="M9.75789 26.4035H22.2421V20.1614H9.75789V26.4035ZM24.3227 26.4035H26.4034V11.8386C26.4034 11.6869 26.3493 11.4783 26.2409 11.2128C26.1325 10.9473 26.0241 10.7603 25.9158 10.652L21.348 6.08419C21.2396 5.97582 21.0554 5.86745 20.7953 5.75909C20.5352 5.65072 20.3239 5.59653 20.1614 5.59653V12.3588C20.1614 12.7923 20.0096 13.1607 19.7062 13.4642C19.4028 13.7676 19.0343 13.9193 18.6008 13.9193H9.23772C8.80424 13.9193 8.43578 13.7676 8.13235 13.4642C7.82891 13.1607 7.6772 12.7923 7.6772 12.3588V5.59653H5.5965V26.4035H7.6772V19.6412C7.6772 19.2077 7.82891 18.8393 8.13235 18.5358C8.43578 18.2324 8.80424 18.0807 9.23772 18.0807H22.7622C23.1957 18.0807 23.5642 18.2324 23.8676 18.5358C24.171 18.8393 24.3227 19.2077 24.3227 19.6412V26.4035ZM18.0807 11.3184V6.1167C18.0807 5.97582 18.0292 5.85391 17.9262 5.75096C17.8233 5.64801 17.7014 5.59653 17.5605 5.59653H14.4395C14.2986 5.59653 14.1767 5.64801 14.0737 5.75096C13.9708 5.85391 13.9193 5.97582 13.9193 6.1167V11.3184C13.9193 11.4593 13.9708 11.5812 14.0737 11.6842C14.1767 11.7871 14.2986 11.8386 14.4395 11.8386H17.5605C17.7014 11.8386 17.8233 11.7871 17.9262 11.6842C18.0292 11.5812 18.0807 11.4593 18.0807 11.3184ZM28.4841 11.8386V26.9236C28.4841 27.3571 28.3324 27.7256 28.029 28.029C27.7255 28.3324 27.3571 28.4842 26.9236 28.4842H5.07633C4.64285 28.4842 4.27439 28.3324 3.97096 28.029C3.66753 27.7256 3.51581 27.3571 3.51581 26.9236V5.07636C3.51581 4.64288 3.66753 4.27442 3.97096 3.97099C4.27439 3.66755 4.64285 3.51584 5.07633 3.51584H20.1614C20.5948 3.51584 21.0717 3.62421 21.5918 3.84095C22.112 4.05768 22.5238 4.31777 22.8272 4.62121L27.3788 9.17272C27.6822 9.47616 27.9423 9.88796 28.159 10.4081C28.3758 10.9283 28.4841 11.4051 28.4841 11.8386Z" fill="#161616"/>
</svg>
