<svg width="32" height="32" viewBox="0 0 32 32" fill="none" xmlns="http://www.w3.org/2000/svg">
<path fill-rule="evenodd" clip-rule="evenodd" d="M13.3965 13.6652V22.092C13.3965 22.2286 13.3526 22.3407 13.2648 22.4285C13.1771 22.5163 13.0649 22.5602 12.9283 22.5602H11.992C11.8555 22.5602 11.7433 22.5163 11.6555 22.4285C11.5678 22.3407 11.5239 22.2286 11.5239 22.092V13.6652C11.5239 13.5287 11.5678 13.4165 11.6555 13.3287C11.7433 13.241 11.8555 13.1971 11.992 13.1971H12.9283C13.0649 13.1971 13.1771 13.241 13.2648 13.3287C13.3526 13.4165 13.3965 13.5287 13.3965 13.6652ZM17.1418 13.6652V22.092C17.1418 22.2286 17.0979 22.3407 17.0101 22.4285C16.9223 22.5163 16.8101 22.5602 16.6736 22.5602H15.7373C15.6007 22.5602 15.4886 22.5163 15.4008 22.4285C15.313 22.3407 15.2691 22.2286 15.2691 22.092V13.6652C15.2691 13.5287 15.313 13.4165 15.4008 13.3287C15.4886 13.241 15.6007 13.1971 15.7373 13.1971H16.6736C16.8101 13.1971 16.9223 13.241 17.0101 13.3287C17.0979 13.4165 17.1418 13.5287 17.1418 13.6652ZM20.887 13.6652V22.092C20.887 22.2286 20.8431 22.3407 20.7553 22.4285C20.6676 22.5163 20.5554 22.5602 20.4188 22.5602H19.4825C19.346 22.5602 19.2338 22.5163 19.146 22.4285C19.0583 22.3407 19.0144 22.2286 19.0144 22.092V13.6652C19.0144 13.5287 19.0583 13.4165 19.146 13.3287C19.2338 13.241 19.346 13.1971 19.4825 13.1971H20.4188C20.5554 13.1971 20.6676 13.241 20.7553 13.3287C20.8431 13.4165 20.887 13.5287 20.887 13.6652ZM22.7596 24.2573V10.3881H9.65126V24.2573C9.65126 24.4718 9.68539 24.6693 9.75366 24.8498C9.82194 25.0302 9.89265 25.1619 9.9658 25.2448C10.0389 25.3277 10.0902 25.3691 10.1194 25.3691H22.2915C22.3207 25.3691 22.3719 25.3277 22.4451 25.2448C22.5182 25.1619 22.5889 25.0302 22.6572 24.8498C22.7255 24.6693 22.7596 24.4718 22.7596 24.2573ZM12.9283 8.51551H19.4825L18.7803 6.80381C18.712 6.71603 18.6291 6.66239 18.5316 6.64288H13.8939C13.7964 6.66239 13.7135 6.71603 13.6452 6.80381L12.9283 8.51551ZM26.5049 8.98366V9.91997C26.5049 10.0565 26.461 10.1687 26.3732 10.2565C26.2854 10.3442 26.1733 10.3881 26.0367 10.3881H24.6323V24.2573C24.6323 25.0668 24.4031 25.7666 23.9446 26.3566C23.4862 26.9467 22.9352 27.2417 22.2915 27.2417H10.1194C9.4757 27.2417 8.92464 26.9565 8.46623 26.3859C8.00783 25.8153 7.77863 25.1253 7.77863 24.3158V10.3881H6.37416C6.23762 10.3881 6.12545 10.3442 6.03767 10.2565C5.9499 10.1687 5.90601 10.0565 5.90601 9.91997V8.98366C5.90601 8.84712 5.9499 8.73495 6.03767 8.64717C6.12545 8.55939 6.23762 8.5155 6.37416 8.5155H10.8948L11.9189 6.07232C12.0652 5.71144 12.3285 5.40422 12.7089 5.15063C13.0893 4.89705 13.4745 4.77026 13.8647 4.77026H18.5462C18.9364 4.77026 19.3216 4.89705 19.702 5.15063C20.0824 5.40422 20.3457 5.71144 20.492 6.07232L21.5161 8.5155H26.0367C26.1733 8.5155 26.2854 8.55939 26.3732 8.64717C26.461 8.73495 26.5049 8.84712 26.5049 8.98366Z" fill="#161616"/>
</svg>
