<svg width="32" height="32" viewBox="0 0 32 32" fill="none" xmlns="http://www.w3.org/2000/svg">
<path fill-rule="evenodd" clip-rule="evenodd" d="M30.3809 14.7951V17.205C30.3809 17.8702 30.1769 18.4382 29.769 18.9089C29.361 19.3796 28.8307 19.6149 28.178 19.6149H14.9234L20.4399 25.1502C20.9169 25.6021 21.1553 26.1669 21.1553 26.8447C21.1553 27.5225 20.9169 28.0873 20.4399 28.5392L19.0278 29.9701C18.5634 30.4345 17.9986 30.6667 17.3334 30.6667C16.6807 30.6667 16.1096 30.4345 15.62 29.9701L3.36331 17.6945C2.89889 17.2301 2.66669 16.6653 2.66669 16C2.66669 15.3474 2.89889 14.7762 3.36331 14.2867L15.62 2.04882C16.097 1.57186 16.6681 1.33337 17.3334 1.33337C17.986 1.33337 18.5509 1.57186 19.0278 2.04882L20.4399 3.44206C20.9169 3.91902 21.1553 4.49013 21.1553 5.15537C21.1553 5.82061 20.9169 6.39171 20.4399 6.86868L14.9234 12.3851H28.178C28.8307 12.3851 29.361 12.6205 29.769 13.0912C30.1769 13.5619 30.3809 14.1298 30.3809 14.7951Z" fill="black"/>
</svg>
