<svg width="32" height="32" viewBox="0 0 32 32" fill="none" xmlns="http://www.w3.org/2000/svg">
<path fill-rule="evenodd" clip-rule="evenodd" d="M23.0922 4.17025V5.30502H23.0922V8.14179C23.0922 8.76849 22.5841 9.27654 21.9574 9.27654C21.3307 9.27654 20.8227 8.76849 20.8227 8.14179V4.17016C20.8227 3.54345 21.3307 3.0354 21.9574 3.0354C22.4376 3.0354 22.848 3.33358 23.0138 3.75485C23.0509 3.84913 23.0757 3.94958 23.0864 4.05423C23.0902 4.09238 23.0922 4.13108 23.0922 4.17025ZM12.8795 5.30502H19.1206V4.17025C19.1206 2.60349 20.3907 1.33337 21.9575 1.33337C23.5242 1.33337 24.7943 2.60349 24.7943 4.17025V5.30502H27.0639C28.3173 5.30502 29.3334 6.32112 29.3334 7.57453V27.4327C29.3334 28.6861 28.3173 29.7022 27.0639 29.7022H4.93619C3.68278 29.7022 2.66669 28.6861 2.66669 27.4327V7.57453C2.66669 6.32111 3.68278 5.30502 4.93619 5.30502H7.2057V4.17025C7.2057 2.60349 8.47582 1.33337 10.0426 1.33337C11.6094 1.33337 12.8795 2.60349 12.8795 4.17025V5.30502ZM9.03674 3.64446C9.22633 3.28243 9.60564 3.0354 10.0426 3.0354C10.6693 3.0354 11.1774 3.54345 11.1774 4.17016V8.14179C11.1774 8.76849 10.6693 9.27654 10.0426 9.27654C9.41593 9.27654 8.90788 8.76849 8.90788 8.14179V5.30502H8.90783V4.17025C8.90783 3.98051 8.9544 3.80164 9.03674 3.64446ZM4.36881 11.5461V16.0851H9.47518V11.5461H10.6099V16.0851H15.1489V11.5461H16.2837V16.0851H21.3901V11.5461H22.5249V16.0851H27.6312V17.2198H22.5249V22.3264H27.6312V23.4611H22.5249V28H21.3901V23.4611H16.2837V28H15.1489V23.4611H10.6099V28H9.47518V23.4611H4.36881V28.0001H27.6312V11.5461H4.36881ZM21.3901 22.3264V17.2198H16.2837V22.3264H21.3901ZM10.6099 17.2198H15.1489V22.3264H10.6099V17.2198ZM9.47518 22.3264V17.2198H4.36881V22.3264H9.47518Z" fill="black"/>
</svg>
