<svg width="32" height="32" viewBox="0 0 32 32" fill="none" xmlns="http://www.w3.org/2000/svg">
<path d="M5.33331 0.461538V6C5.33331 6.25477 5.54008 6.46154 5.79485 6.46154H9.02562V27.6923C9.02562 28.2022 9.43879 28.6154 9.9487 28.6154H18.2564V30.9231C18.2564 31.1778 18.4632 31.3846 18.7179 31.3846H27.0256C27.2804 31.3846 27.4872 31.1778 27.4872 30.9231V25.3846C27.4872 25.1298 27.2804 24.9231 27.0256 24.9231H18.7179C18.4632 24.9231 18.2564 25.1298 18.2564 25.3846V26.7692H10.8718V20.3077H18.2564V22.6154C18.2564 22.8702 18.4632 23.0769 18.7179 23.0769H27.0256C27.2804 23.0769 27.4872 22.8702 27.4872 22.6154V17.0769C27.4872 16.8222 27.2804 16.6154 27.0256 16.6154H18.7179C18.4632 16.6154 18.2564 16.8222 18.2564 17.0769V18.4615H10.8718V12H18.2564V14.3077C18.2564 14.5625 18.4632 14.7692 18.7179 14.7692H27.0256C27.2804 14.7692 27.4872 14.5625 27.4872 14.3077V8.76923C27.4872 8.51446 27.2804 8.30769 27.0256 8.30769H18.7179C18.4632 8.30769 18.2564 8.51446 18.2564 8.76923V10.1538H10.8718V6.46154H14.1025C14.3573 6.46154 14.5641 6.25477 14.5641 6V0.461538C14.5641 0.206769 14.3573 0 14.1025 0H5.79485C5.54008 0 5.33331 0.206769 5.33331 0.461538ZM19.1795 25.8462H26.5641V30.4615H19.1795V25.8462ZM19.1795 17.5385H26.5641V22.1538H19.1795V17.5385ZM19.1795 9.23077H26.5641V13.8462H19.1795V9.23077ZM6.25639 0.923077H13.641V5.53846H6.25639V0.923077Z" fill="black"/>
</svg>
