<svg width="35" height="32" viewBox="0 0 35 32" fill="none" xmlns="http://www.w3.org/2000/svg">
<path fill-rule="evenodd" clip-rule="evenodd" d="M3.13333 0H31C32.7305 0 34.1333 1.61866 34.1333 3.61538V28.3846C34.1333 30.3813 32.7305 32 31 32H3.13333C1.40284 32 0 30.3813 0 28.3846V3.61538C0 1.61866 1.40284 0 3.13333 0ZM3.79678 3.2C3.0422 3.22994 2.8444 3.68841 2.8444 4.29091V27.7091C2.8444 28.3116 3.2708 28.8 3.79678 28.8H30.3365C30.8625 28.8 31.2888 28.3116 31.2888 27.7091V4.29091C31.2888 3.68841 30.8625 3.2 30.3365 3.2C30.3365 3.2 4.55137 3.17005 3.79678 3.2ZM28.4446 4.62305V27.3786H24.1779V4.62305H28.4446ZM16.1187 7.12617V27.3786H11.852V7.12617H16.1187ZM9.95563 17.1621V27.3737H5.68896V17.1621H9.95563ZM22.2815 27.3786V12.1608H18.0149V27.3786H22.2815Z" fill="black"/>
</svg>
