<svg width="34" height="32" viewBox="0 0 34 32" fill="none" xmlns="http://www.w3.org/2000/svg">
<path d="M32.9505 11.7034L25.617 18.6286C24.844 19.3586 23.5556 18.8173 23.5556 17.74V14.0752C16.1929 14.1246 13.0869 15.8634 15.1642 22.8015C15.3925 23.564 14.51 24.1545 13.8908 23.6841C11.9064 22.1767 10.1111 19.2934 10.1111 16.383C10.1111 9.05291 16.0999 7.59831 23.5556 7.55696V3.88953C23.5556 2.81123 24.8448 2.27172 25.617 3.00098L32.9505 9.92629C33.4607 10.4082 33.4612 11.2211 32.9505 11.7034V11.7034ZM23.5556 21.9741V25.4815H7.25926V9.18522H9.8522C9.9345 9.18516 10.0159 9.16848 10.0916 9.13616C10.1673 9.10384 10.2357 9.05656 10.2926 8.99715C11.0541 8.20433 11.9343 7.57682 12.8905 7.07846C13.4574 6.78304 13.2473 5.92596 12.6082 5.92596H6.44444C5.0944 5.92596 4 7.02036 4 8.3704V26.2963C4 27.6464 5.0944 28.7408 6.44444 28.7408H24.3704C25.7204 28.7408 26.8148 27.6464 26.8148 26.2963V21.7738C26.8148 21.3517 26.3974 21.0575 25.9994 21.1982C25.4415 21.3955 24.8441 21.4546 24.2583 21.3702C23.8881 21.3169 23.5556 21.6001 23.5556 21.9741V21.9741Z" fill="black"/>
</svg>
