<svg width="34" height="32" viewBox="0 0 34 32" fill="none" xmlns="http://www.w3.org/2000/svg">
<path fill-rule="evenodd" clip-rule="evenodd" d="M16.8228 0L11.6228 10.5371L-6.10352e-05 12.2171L8.41137 20.4229L6.4228 32L16.8228 26.5371L27.2228 32L25.2342 20.4229L33.6457 12.2286L22.0228 10.5371L16.8228 0Z" fill="black"/>
<path d="M12.568 15.996V17.196C12.776 17.196 12.992 17.204 13.216 17.22C13.448 17.228 13.66 17.272 13.852 17.352C14.044 17.424 14.2 17.544 14.32 17.712C14.448 17.88 14.512 18.124 14.512 18.444C14.512 18.852 14.38 19.176 14.116 19.416C13.852 19.648 13.528 19.764 13.144 19.764C12.896 19.764 12.68 19.72 12.496 19.632C12.32 19.544 12.172 19.428 12.052 19.284C11.932 19.132 11.84 18.956 11.776 18.756C11.712 18.548 11.676 18.332 11.668 18.108H10.048C10.04 18.596 10.108 19.028 10.252 19.404C10.404 19.78 10.616 20.1 10.888 20.364C11.16 20.62 11.488 20.816 11.872 20.952C12.264 21.088 12.696 21.156 13.168 21.156C13.576 21.156 13.968 21.096 14.344 20.976C14.72 20.856 15.052 20.68 15.34 20.448C15.628 20.216 15.856 19.928 16.024 19.584C16.2 19.24 16.288 18.848 16.288 18.408C16.288 17.928 16.156 17.516 15.892 17.172C15.628 16.828 15.264 16.604 14.8 16.5V16.476C15.192 16.364 15.484 16.152 15.676 15.84C15.876 15.528 15.976 15.168 15.976 14.76C15.976 14.384 15.892 14.052 15.724 13.764C15.556 13.476 15.336 13.232 15.064 13.032C14.8 12.832 14.5 12.684 14.164 12.588C13.828 12.484 13.492 12.432 13.156 12.432C12.724 12.432 12.332 12.504 11.98 12.648C11.628 12.784 11.324 12.98 11.068 13.236C10.82 13.492 10.624 13.8 10.48 14.16C10.344 14.512 10.268 14.904 10.252 15.336H11.872C11.864 14.904 11.968 14.548 12.184 14.268C12.408 13.98 12.736 13.836 13.168 13.836C13.48 13.836 13.756 13.932 13.996 14.124C14.236 14.316 14.356 14.592 14.356 14.952C14.356 15.192 14.296 15.384 14.176 15.528C14.064 15.672 13.916 15.784 13.732 15.864C13.556 15.936 13.364 15.98 13.156 15.996C12.948 16.012 12.752 16.012 12.568 15.996ZM17.944 15.828H19.576C19.576 15.604 19.596 15.38 19.636 15.156C19.684 14.924 19.76 14.716 19.864 14.532C19.968 14.34 20.104 14.188 20.272 14.076C20.448 13.956 20.66 13.896 20.908 13.896C21.276 13.896 21.576 14.012 21.808 14.244C22.048 14.468 22.168 14.784 22.168 15.192C22.168 15.448 22.108 15.676 21.988 15.876C21.876 16.076 21.732 16.256 21.556 16.416C21.388 16.576 21.2 16.724 20.992 16.86C20.784 16.988 20.588 17.116 20.404 17.244C20.044 17.492 19.7 17.736 19.372 17.976C19.052 18.216 18.772 18.48 18.532 18.768C18.292 19.048 18.1 19.368 17.956 19.728C17.82 20.088 17.752 20.512 17.752 21H23.92V19.536H19.948C20.156 19.248 20.396 18.996 20.668 18.78C20.94 18.564 21.22 18.364 21.508 18.18C21.796 17.988 22.08 17.796 22.36 17.604C22.648 17.412 22.904 17.2 23.128 16.968C23.352 16.728 23.532 16.456 23.668 16.152C23.804 15.848 23.872 15.484 23.872 15.06C23.872 14.652 23.792 14.284 23.632 13.956C23.48 13.628 23.272 13.352 23.008 13.128C22.744 12.904 22.436 12.732 22.084 12.612C21.74 12.492 21.376 12.432 20.992 12.432C20.488 12.432 20.04 12.52 19.648 12.696C19.264 12.864 18.944 13.104 18.688 13.416C18.432 13.72 18.24 14.08 18.112 14.496C17.984 14.904 17.928 15.348 17.944 15.828Z" fill="white"/>
</svg>
