<svg width="32" height="32" viewBox="0 0 32 32" fill="none" xmlns="http://www.w3.org/2000/svg">
<path fill-rule="evenodd" clip-rule="evenodd" d="M23.9545 15.5454C23.8333 15.8484 23.606 16 23.2727 16H18.9091V24C18.9091 24.2121 18.8409 24.3863 18.7045 24.5227C18.5682 24.659 18.3939 24.7272 18.1818 24.7272H13.8182C13.606 24.7272 13.4318 24.659 13.2954 24.5227C13.1591 24.3863 13.0909 24.2121 13.0909 24V16H8.72726C8.51514 16 8.34089 15.9318 8.20453 15.7954C8.06817 15.659 7.99998 15.4848 7.99998 15.2727C7.99998 15.0909 8.07574 14.909 8.22726 14.7272L15.4773 7.47723C15.6439 7.34087 15.8182 7.27268 16 7.27268C16.1818 7.27268 16.356 7.34087 16.5227 7.47723L23.7954 14.75C24.0227 14.9924 24.0757 15.2575 23.9545 15.5454ZM16 3.63641C13.7576 3.63641 11.6894 4.18944 9.79544 5.2955C7.9015 6.40156 6.4015 7.90156 5.29544 9.7955C4.18938 11.6894 3.63635 13.7576 3.63635 16C3.63635 18.2425 4.18938 20.3107 5.29544 22.2046C6.4015 24.0985 7.9015 25.5985 9.79544 26.7046C11.6894 27.8107 13.7576 28.3637 16 28.3637C18.2424 28.3637 20.3106 27.8107 22.2045 26.7046C24.0985 25.5985 25.5985 24.0985 26.7045 22.2046C27.8106 20.3107 28.3636 18.2425 28.3636 16C28.3636 13.7576 27.8106 11.6894 26.7045 9.7955C25.5985 7.90156 24.0985 6.40156 22.2045 5.2955C20.3106 4.18944 18.2424 3.63641 16 3.63641ZM31.9999 16C31.9999 18.9028 31.2847 21.5799 29.8541 24.0312C28.4236 26.4826 26.4826 28.4236 24.0312 29.8542C21.5798 31.2847 18.9027 32 15.9999 32C13.0972 32 10.4201 31.2847 7.96869 29.8542C5.5173 28.4236 3.57633 26.4826 2.14577 24.0312C0.715217 21.5799 -6.10352e-05 18.9028 -6.10352e-05 16C-6.10352e-05 13.0972 0.715217 10.4201 2.14577 7.96875C3.57633 5.51736 5.5173 3.57639 7.96869 2.14583C10.4201 0.715278 13.0972 0 15.9999 0C18.9027 0 21.5798 0.715278 24.0312 2.14583C26.4826 3.57639 28.4236 5.51736 29.8541 7.96875C31.2847 10.4201 31.9999 13.0972 31.9999 16Z" fill="black"/>
</svg>
