<svg width="32" height="32" viewBox="0 0 32 32" fill="none" xmlns="http://www.w3.org/2000/svg">
<path fill-rule="evenodd" clip-rule="evenodd" d="M26.4799 17.4457V26.179C26.4799 26.4944 26.3647 26.7673 26.1342 26.9977C25.9038 27.2282 25.6309 27.3434 25.3155 27.3434H18.3289V20.3568H13.6711V27.3434H6.68448C6.36911 27.3434 6.09619 27.2282 5.86573 26.9977C5.63527 26.7673 5.52004 26.4944 5.52004 26.179V17.4457C5.52004 17.4336 5.52307 17.4154 5.52913 17.3911C5.5352 17.3669 5.53823 17.3487 5.53823 17.3365L16 8.71241L26.4617 17.3365C26.4739 17.3608 26.4799 17.3972 26.4799 17.4457ZM30.5373 16.1902L29.4092 17.5366C29.3122 17.6458 29.1848 17.7125 29.0271 17.7367H28.9725C28.8149 17.7367 28.6875 17.6943 28.5905 17.6094L16 7.11123L3.40949 17.6094C3.26394 17.7064 3.11838 17.7489 2.97283 17.7367C2.81514 17.7125 2.68778 17.6458 2.59074 17.5366L1.4627 16.1902C1.36566 16.0689 1.32321 15.9264 1.33533 15.7626C1.34746 15.5989 1.41418 15.4685 1.53547 15.3715L14.6172 4.47305C15.0054 4.15768 15.4663 4 16 4C16.5337 4 16.9946 4.15768 17.3827 4.47305L21.8222 8.1847V4.6368C21.8222 4.46699 21.8768 4.3275 21.9859 4.21833C22.0951 4.10917 22.2346 4.05458 22.4044 4.05458H25.8977C26.0675 4.05458 26.207 4.10917 26.3162 4.21833C26.4253 4.3275 26.4799 4.46699 26.4799 4.6368V12.0601L30.4645 15.3715C30.5858 15.4685 30.6525 15.5989 30.6646 15.7626C30.6768 15.9264 30.6343 16.0689 30.5373 16.1902Z" fill="black"/>
</svg>
