<svg width="32" height="32" viewBox="0 0 32 32" fill="none" xmlns="http://www.w3.org/2000/svg">
<path fill-rule="evenodd" clip-rule="evenodd" d="M31.6228 11.4591L16.8933 26.1687C16.6419 26.4202 16.3441 26.5459 16 26.5459C15.6559 26.5459 15.3581 26.4202 15.1067 26.1687L0.377171 11.4591C0.125724 11.2076 0 10.9065 0 10.5558C0 10.2051 0.125724 9.90405 0.377171 9.65261L3.67246 6.37717C3.9239 6.12572 4.22167 6 4.56576 6C4.90984 6 5.20761 6.12572 5.45906 6.37717L16 16.9181L26.5409 6.37717C26.7924 6.12572 27.0902 6 27.4342 6C27.7783 6 28.0761 6.12572 28.3275 6.37717L31.6228 9.65261C31.8743 9.90405 32 10.2051 32 10.5558C32 10.9065 31.8743 11.2076 31.6228 11.4591Z" fill="black"/>
</svg>
