<svg width="32" height="32" viewBox="0 0 32 32" fill="none" xmlns="http://www.w3.org/2000/svg">
<path fill-rule="evenodd" clip-rule="evenodd" d="M25.6667 14H26.5C28.801 14 30.6667 15.8656 30.6667 18.1667V23.1667C30.6667 23.6271 30.2937 24 29.8333 24H25.6667V29.8333C25.6667 30.2937 25.2937 30.6667 24.8333 30.6667H9.83333C9.37292 30.6667 9 30.2937 9 29.8333V24H4.83333C4.37292 24 4 23.6271 4 23.1667V18.1667C4 15.8656 5.86563 14 8.16667 14H9V5.66667C9 4.74635 9.71042 4 10.5875 4H19.976C20.4182 4 20.8422 4.17552 21.1547 4.48802L25.1786 8.51146C25.4911 8.82448 25.6667 9.24792 25.6667 9.6901V14ZM23.3099 9L20.6667 6.35677V9H23.3099ZM10.673 5.66667H19V9C19 9.92031 19.7464 10.6667 20.6667 10.6667H24V14H10.6678L10.673 5.66667ZM10.6667 29H24V24H10.6667V29ZM29 22.3333H5.66667V18.1667C5.66667 16.788 6.78802 15.6667 8.16667 15.6667H26.5C27.8786 15.6667 29 16.788 29 18.1667V22.3333ZM23.5833 19C23.5833 18.3094 24.1432 17.75 24.8333 17.75C25.5234 17.75 26.0833 18.3094 26.0833 19C26.0833 19.6901 25.5234 20.25 24.8333 20.25C24.1432 20.25 23.5833 19.6901 23.5833 19Z" fill="black"/>
</svg>
