<svg width="32" height="32" viewBox="0 0 32 32" fill="none" xmlns="http://www.w3.org/2000/svg">
<path d="M14.559 22.9964L25.2187 12.3367C25.4386 12.1168 25.5486 11.8564 25.5486 11.5555C25.5486 11.2546 25.4386 10.9942 25.2187 10.7742L23.4479 9.00342C23.228 8.78351 22.9676 8.67356 22.6666 8.67356C22.3657 8.67356 22.1053 8.78351 21.8854 9.00342L13.7778 17.111L10.1146 13.4479C9.89468 13.2279 9.63426 13.118 9.33334 13.118C9.03241 13.118 8.772 13.2279 8.55209 13.4479L6.78126 15.2187C6.56135 15.4386 6.4514 15.699 6.4514 15.9999C6.4514 16.3009 6.56135 16.5613 6.78126 16.7812L12.9965 22.9964C13.2164 23.2163 13.4768 23.3263 13.7778 23.3263C14.0787 23.3263 14.3391 23.2163 14.559 22.9964ZM29.3333 7.66661V24.3332C29.3333 25.7106 28.8443 26.8882 27.8663 27.8662C26.8883 28.8442 25.7106 29.3332 24.3333 29.3332H7.66668C6.28936 29.3332 5.1117 28.8442 4.1337 27.8662C3.15569 26.8882 2.66669 25.7106 2.66669 24.3332V7.66661C2.66669 6.2893 3.15569 5.11164 4.1337 4.13364C5.1117 3.15563 6.28936 2.66663 7.66668 2.66663H24.3333C25.7106 2.66663 26.8883 3.15563 27.8663 4.13364C28.8443 5.11164 29.3333 6.2893 29.3333 7.66661Z" fill="black"/>
</svg>
