<svg width="32" height="32" viewBox="0 0 32 32" fill="none" xmlns="http://www.w3.org/2000/svg">
<mask id="mask0_880_2247" style="mask-type:alpha" maskUnits="userSpaceOnUse" x="3" y="6" width="26" height="20">
<path fill-rule="evenodd" clip-rule="evenodd" d="M17.7605 24.0694H26.5634V22.3088H17.7605V24.0694ZM12.4787 17.027H26.5634V15.2664H12.4787V17.027ZM21.2817 9.98466H26.5634V8.22407H21.2817V9.98466ZM28.324 21.4285V24.9496C28.324 25.1881 28.2369 25.3944 28.0627 25.5686C27.8884 25.7428 27.6821 25.8299 27.4437 25.8299H4.55607C4.31766 25.8299 4.11134 25.7428 3.93712 25.5686C3.76289 25.3944 3.67578 25.1881 3.67578 24.9496V21.4285C3.67578 21.1901 3.76289 20.9837 3.93712 20.8095C4.11134 20.6353 4.31766 20.5482 4.55607 20.5482H27.4437C27.6821 20.5482 27.8884 20.6353 28.0627 20.8095C28.2369 20.9837 28.324 21.1901 28.324 21.4285ZM28.324 14.3861V17.9073C28.324 18.1457 28.2369 18.352 28.0627 18.5263C27.8884 18.7005 27.6821 18.7876 27.4437 18.7876H4.55607C4.31766 18.7876 4.11134 18.7005 3.93712 18.5263C3.76289 18.352 3.67578 18.1457 3.67578 17.9073V14.3861C3.67578 14.1477 3.76289 13.9414 3.93712 13.7672C4.11134 13.5929 4.31766 13.5058 4.55607 13.5058H27.4437C27.6821 13.5058 27.8884 13.5929 28.0627 13.7672C28.2369 13.9414 28.324 14.1477 28.324 14.3861ZM28.324 7.34378V10.865C28.324 11.1034 28.2369 11.3097 28.0627 11.4839C27.8884 11.6581 27.6821 11.7452 27.4437 11.7452H4.55607C4.31766 11.7452 4.11134 11.6581 3.93712 11.4839C3.76289 11.3097 3.67578 11.1034 3.67578 10.865V7.34378C3.67578 7.10537 3.76289 6.89905 3.93712 6.72482C4.11134 6.5506 4.31766 6.46349 4.55607 6.46349H27.4437C27.6821 6.46349 27.8884 6.5506 28.0627 6.72482C28.2369 6.89905 28.324 7.10537 28.324 7.34378Z" fill="white"/>
</mask>
<g mask="url(#mask0_880_2247)">
<rect x="3.67578" y="4.7029" width="24.6482" height="24.6482" fill="#161616"/>
</g>
</svg>
