<svg width="150" height="150" viewBox="0 0 150 150" fill="none" xmlns="http://www.w3.org/2000/svg">
<rect x="24" y="61" width="102" height="28" rx="2" stroke="black" stroke-width="2"/>
<path d="M50.7784 80.5V68.8636H55.0398C55.8655 68.8636 56.5492 69 57.0909 69.2727C57.6326 69.5417 58.0379 69.9072 58.3068 70.3693C58.5758 70.8277 58.7102 71.3447 58.7102 71.9205C58.7102 72.4053 58.6212 72.8144 58.4432 73.1477C58.2652 73.4773 58.0265 73.7424 57.7273 73.9432C57.4318 74.1402 57.1061 74.2841 56.75 74.375V74.4886C57.1364 74.5076 57.5133 74.6326 57.8807 74.8636C58.2519 75.0909 58.5587 75.4148 58.8011 75.8352C59.0436 76.2557 59.1648 76.767 59.1648 77.3693C59.1648 77.964 59.0246 78.4981 58.7443 78.9716C58.4678 79.4413 58.0398 79.8144 57.4602 80.0909C56.8807 80.3636 56.1402 80.5 55.2386 80.5H50.7784ZM52.5341 78.9943H55.0682C55.9091 78.9943 56.5114 78.8314 56.875 78.5057C57.2386 78.1799 57.4205 77.7727 57.4205 77.2841C57.4205 76.9167 57.3277 76.5795 57.142 76.2727C56.9564 75.9659 56.6913 75.7216 56.3466 75.5398C56.0057 75.358 55.6004 75.267 55.1307 75.267H52.5341V78.9943ZM52.5341 73.8977H54.8864C55.2803 73.8977 55.6345 73.822 55.9489 73.6705C56.267 73.5189 56.5189 73.3068 56.7045 73.0341C56.8939 72.7576 56.9886 72.4318 56.9886 72.0568C56.9886 71.5758 56.8201 71.1723 56.483 70.8466C56.1458 70.5208 55.6288 70.358 54.9318 70.358H52.5341V73.8977ZM66.6392 76.8807V71.7727H68.3438V80.5H66.6733V78.9886H66.5824C66.3816 79.4545 66.0597 79.8428 65.6165 80.1534C65.1771 80.4602 64.6297 80.6136 63.9744 80.6136C63.4138 80.6136 62.9176 80.4905 62.4858 80.2443C62.0578 79.9943 61.7206 79.625 61.4744 79.1364C61.232 78.6477 61.1108 78.0436 61.1108 77.3239V71.7727H62.8097V77.1193C62.8097 77.714 62.9744 78.1875 63.304 78.5398C63.6335 78.892 64.0616 79.0682 64.5881 79.0682C64.9063 79.0682 65.2225 78.9886 65.5369 78.8295C65.8551 78.6705 66.1184 78.4299 66.3267 78.108C66.5388 77.786 66.643 77.3769 66.6392 76.8807ZM74.7003 71.7727V73.1364H69.9332V71.7727H74.7003ZM71.2116 69.6818H72.9105V77.9375C72.9105 78.267 72.9598 78.5152 73.0582 78.6818C73.1567 78.8447 73.2836 78.9564 73.4389 79.017C73.598 79.0739 73.7704 79.1023 73.956 79.1023C74.0923 79.1023 74.2116 79.0928 74.3139 79.0739C74.4162 79.0549 74.4957 79.0398 74.5526 79.0284L74.8594 80.4318C74.7609 80.4697 74.6207 80.5076 74.4389 80.5455C74.2571 80.5871 74.0298 80.6098 73.7571 80.6136C73.3101 80.6212 72.8935 80.5417 72.5071 80.375C72.1207 80.2083 71.8082 79.9508 71.5696 79.6023C71.331 79.2538 71.2116 78.8163 71.2116 78.2898V69.6818ZM80.6534 71.7727V73.1364H75.8864V71.7727H80.6534ZM77.1648 69.6818H78.8636V77.9375C78.8636 78.267 78.9129 78.5152 79.0114 78.6818C79.1098 78.8447 79.2367 78.9564 79.392 79.017C79.5511 79.0739 79.7235 79.1023 79.9091 79.1023C80.0455 79.1023 80.1648 79.0928 80.267 79.0739C80.3693 79.0549 80.4489 79.0398 80.5057 79.0284L80.8125 80.4318C80.714 80.4697 80.5739 80.5076 80.392 80.5455C80.2102 80.5871 79.983 80.6098 79.7102 80.6136C79.2633 80.6212 78.8466 80.5417 78.4602 80.375C78.0739 80.2083 77.7614 79.9508 77.5227 79.6023C77.2841 79.2538 77.1648 78.8163 77.1648 78.2898V69.6818ZM86.1151 80.6761C85.2969 80.6761 84.5829 80.4886 83.973 80.1136C83.3632 79.7386 82.8897 79.214 82.5526 78.5398C82.2154 77.8655 82.0469 77.0777 82.0469 76.1761C82.0469 75.2708 82.2154 74.4792 82.5526 73.8011C82.8897 73.1231 83.3632 72.5966 83.973 72.2216C84.5829 71.8466 85.2969 71.6591 86.1151 71.6591C86.9332 71.6591 87.6473 71.8466 88.2571 72.2216C88.867 72.5966 89.3404 73.1231 89.6776 73.8011C90.0147 74.4792 90.1832 75.2708 90.1832 76.1761C90.1832 77.0777 90.0147 77.8655 89.6776 78.5398C89.3404 79.214 88.867 79.7386 88.2571 80.1136C87.6473 80.4886 86.9332 80.6761 86.1151 80.6761ZM86.1207 79.25C86.651 79.25 87.0904 79.1098 87.4389 78.8295C87.7874 78.5492 88.045 78.1761 88.2116 77.7102C88.3821 77.2443 88.4673 76.7311 88.4673 76.1705C88.4673 75.6136 88.3821 75.1023 88.2116 74.6364C88.045 74.1667 87.7874 73.7898 87.4389 73.5057C87.0904 73.2216 86.651 73.0795 86.1207 73.0795C85.5866 73.0795 85.1435 73.2216 84.7912 73.5057C84.4427 73.7898 84.1832 74.1667 84.0128 74.6364C83.8461 75.1023 83.7628 75.6136 83.7628 76.1705C83.7628 76.7311 83.8461 77.2443 84.0128 77.7102C84.1832 78.1761 84.4427 78.5492 84.7912 78.8295C85.1435 79.1098 85.5866 79.25 86.1207 79.25ZM93.7784 75.3182V80.5H92.0795V71.7727H93.7102V73.1932H93.8182C94.0189 72.7311 94.3333 72.3598 94.7614 72.0795C95.1932 71.7992 95.7367 71.6591 96.392 71.6591C96.9867 71.6591 97.5076 71.7841 97.9545 72.0341C98.4015 72.2803 98.7481 72.6477 98.9943 73.1364C99.2405 73.625 99.3636 74.2292 99.3636 74.9489V80.5H97.6648V75.1534C97.6648 74.5208 97.5 74.0265 97.1705 73.6705C96.8409 73.3106 96.3883 73.1307 95.8125 73.1307C95.4186 73.1307 95.0682 73.2159 94.7614 73.3864C94.4583 73.5568 94.2178 73.8068 94.0398 74.1364C93.8655 74.4621 93.7784 74.8561 93.7784 75.3182Z" fill="black"/>
</svg>
