<svg width="20" height="20" viewBox="0 0 20 20" fill="none" xmlns="http://www.w3.org/2000/svg">
<path fill-rule="evenodd" clip-rule="evenodd" d="M6.71001 0.838046H7.96001V4.33805H6.71001V0.838046ZM6.62612 5.37679C6.03486 5.1993 5.48353 5.75063 5.66102 6.34189L8.52674 15.8884C8.71529 16.5165 9.5501 16.6411 9.91386 16.0955L11.5013 13.7143L15.3249 17.5432C15.6275 17.8462 16.1185 17.8464 16.4213 17.5436L17.8278 16.1371C18.1306 15.8343 18.1304 15.3433 17.8274 15.0407L13.9985 11.2171L16.3797 9.62963C16.9254 9.26587 16.8007 8.43106 16.1726 8.24251L6.62612 5.37679ZM9.43374 14.5622L7.11197 6.82774L14.8464 9.14951L12.6703 10.6002L12.0355 11.0234L12.5754 11.5625L16.6078 15.5893L15.8736 16.3236L11.8468 12.2911L11.3077 11.7513L10.8845 12.3861L9.43374 14.5622ZM4.57529 7.72V6.47H1.07529V7.72H4.57529ZM2.98429 1.86317L2.10041 2.74706L4.57528 5.22193L5.45917 4.33805L2.98429 1.86317Z" fill="#161616"/>
</svg>
