<svg width="20" height="20" viewBox="0 0 20 20" fill="none" xmlns="http://www.w3.org/2000/svg">
<path fill-rule="evenodd" clip-rule="evenodd" d="M5.3667 8.61133C6.05706 8.61133 6.6167 8.05168 6.6167 7.36133C6.6167 6.67097 6.05706 6.11133 5.3667 6.11133C4.67634 6.11133 4.1167 6.67097 4.1167 7.36133C4.1167 8.05168 4.67634 8.61133 5.3667 8.61133Z" fill="black"/>
<path fill-rule="evenodd" clip-rule="evenodd" d="M4.9353 12.7598C5.62566 12.7598 6.1853 12.2001 6.1853 11.5098C6.1853 10.8194 5.62566 10.2598 4.9353 10.2598C4.24495 10.2598 3.6853 10.8194 3.6853 11.5098C3.6853 12.2001 4.24495 12.7598 4.9353 12.7598Z" fill="black"/>
<path fill-rule="evenodd" clip-rule="evenodd" d="M15.3889 11.1113C16.0793 11.1113 16.6389 10.5517 16.6389 9.86133C16.6389 9.17097 16.0793 8.61133 15.3889 8.61133C14.6986 8.61133 14.1389 9.17097 14.1389 9.86133C14.1389 10.5517 14.6986 11.1113 15.3889 11.1113Z" fill="black"/>
<path fill-rule="evenodd" clip-rule="evenodd" d="M13.1653 7.74414C13.8556 7.74414 14.4153 7.1845 14.4153 6.49414C14.4153 5.80378 13.8556 5.24414 13.1653 5.24414C12.4749 5.24414 11.9153 5.80378 11.9153 6.49414C11.9153 7.1845 12.4749 7.74414 13.1653 7.74414Z" fill="black"/>
<path fill-rule="evenodd" clip-rule="evenodd" d="M9.02466 6.49414C9.71501 6.49414 10.2747 5.9345 10.2747 5.24414C10.2747 4.55378 9.71501 3.99414 9.02466 3.99414C8.3343 3.99414 7.77466 4.55378 7.77466 5.24414C7.77466 5.9345 8.3343 6.49414 9.02466 6.49414Z" fill="black"/>
<path fill-rule="evenodd" clip-rule="evenodd" d="M11.7831 13.9765C14.4009 14.6746 16.4108 14.274 17.6905 13.0903C18.9593 11.9167 19.3559 10.1133 19.0537 8.33538C18.4468 4.76373 15.0015 0.999147 9.19048 1.25665C4.9719 1.26383 1.74746 4.45549 1.01043 8.19933C0.639112 10.0855 0.893226 12.126 1.9671 13.9894C3.04019 15.8515 4.90803 17.4965 7.69853 18.6429C8.20903 18.8556 9.04378 19.0398 9.78111 18.9996C10.1476 18.9796 10.564 18.9009 10.9064 18.6757C11.287 18.4254 11.5293 18.022 11.5293 17.5013C11.5293 17.0317 11.3461 16.628 11.1393 16.3016C10.9507 16.0038 10.7096 15.7218 10.5046 15.4819L10.4566 15.4256C10.2258 15.1551 10.0472 14.9377 9.93063 14.7306C9.81913 14.5325 9.79963 14.4041 9.81579 14.3046C9.84536 14.1226 9.90562 14.029 9.95954 13.9748C10.0164 13.9177 10.1091 13.8617 10.2683 13.8267C10.6104 13.7515 11.1303 13.8013 11.7817 13.9816L11.7831 13.9765ZM12.0951 12.7714L12.0964 12.7664C14.4648 13.4 15.9805 12.9693 16.8417 12.1727C17.7154 11.3645 18.0747 10.0353 17.8214 8.5448C17.318 5.5826 14.4123 2.27086 9.2331 2.50599L9.21894 2.50663H9.20476C5.65436 2.50663 2.87513 5.19877 2.23689 8.44077C1.92016 10.0496 2.13651 11.78 3.05013 13.3653C3.96339 14.95 5.59721 16.43 8.18182 17.49C8.54007 17.6387 9.1859 17.7802 9.71305 17.7515C9.97942 17.7369 10.1416 17.6826 10.2196 17.6313C10.2594 17.6051 10.2793 17.5886 10.2793 17.5013C10.2793 17.363 10.2258 17.1953 10.0834 16.9705C9.94442 16.7512 9.75869 16.5335 9.53742 16.2742L9.5055 16.2368C9.28638 15.9799 9.02688 15.6734 8.84133 15.3438C8.6507 15.0051 8.50405 14.5839 8.58196 14.1042C8.64645 13.7071 8.80688 13.3609 9.07359 13.093C9.33736 12.828 9.66518 12.6794 9.99987 12.6059C10.6394 12.4653 11.3919 12.5785 12.0951 12.7714Z" fill="black"/>
</svg>
