<svg width="20" height="20" viewBox="0 0 20 20" fill="none" xmlns="http://www.w3.org/2000/svg">
<path fill-rule="evenodd" clip-rule="evenodd" d="M17.5 3.75C17.5 3.05964 16.9404 2.5 16.25 2.5H13.75V1.25H12.5V2.5H7.5V1.25H6.25V2.5H3.75C3.05964 2.5 2.5 3.05964 2.5 3.75V16.25C2.5 16.9404 3.05964 17.5 3.75 17.5H6.25V16.25H3.75V3.75H6.25V5H7.5V3.75H12.5V5H13.75V3.75H16.25V7.5H17.5V3.75ZM8.125 13.75C8.125 16.5114 10.3636 18.75 13.125 18.75C15.8864 18.75 18.125 16.5114 18.125 13.75C18.125 10.9886 15.8864 8.75 13.125 8.75C10.3636 8.75 8.125 10.9886 8.125 13.75ZM12.5 14.0063L14.1187 15.625L15 14.7437L13.75 13.4937V11.25H12.5V14.0063ZM9.375 13.75C9.375 11.6789 11.0539 10 13.125 10C15.1961 10 16.875 11.6789 16.875 13.75C16.875 15.8211 15.1961 17.5 13.125 17.5C11.0539 17.5 9.375 15.8211 9.375 13.75Z" fill="#161616"/>
</svg>
