<svg width="20" height="20" viewBox="0 0 20 20" fill="none" xmlns="http://www.w3.org/2000/svg">
<path fill-rule="evenodd" clip-rule="evenodd" d="M1.26614 3.35086C1.25458 2.17706 2.21816 1.26685 3.35904 1.26685H17.5261C18.1474 1.26685 18.6511 1.77053 18.6511 2.39185V17.9582C18.6511 18.3862 18.3041 18.7332 17.8761 18.7332H14.3354C13.9074 18.7332 13.5604 18.3862 13.5604 17.9582V5.98825H9.1131L8.47486 6.89825V7.6214C8.47486 8.04956 8.16503 8.41483 7.74261 8.48468L7.09664 8.59149C5.94884 8.78129 4.77767 8.78129 3.62987 8.59149L2.9839 8.48468C2.56148 8.41483 2.25165 8.04956 2.25165 7.6214V6.89878L2.23514 6.8744C2.15392 6.75394 2.04433 6.58388 1.92994 6.38398C1.71066 6.00079 1.43563 5.44335 1.35274 4.89501C1.29137 4.489 1.27141 3.88522 1.26614 3.35086ZM3.37765 6.32727L3.37774 6.32739L3.37787 6.32756L3.37791 6.32762L3.50165 6.49343V6.70093V7.30332L3.8338 7.35824C4.84656 7.52571 5.87995 7.52571 6.89271 7.35824L7.22486 7.30332V6.77986C7.22486 6.60006 7.28025 6.42463 7.38349 6.27742L8.27636 5.00437L8.463 4.73825H8.78805H14.1854H14.8104V5.36325V17.4832H17.4011V2.51685H3.35904C2.88012 2.51685 2.51169 2.89264 2.51608 3.33855C2.52138 3.87655 2.54202 4.3994 2.5887 4.70818C2.63573 5.0193 2.81365 5.41152 3.01486 5.76314C3.11071 5.93064 3.20324 6.07426 3.27158 6.17563C3.30562 6.22611 3.33329 6.26558 3.35192 6.2917L3.37263 6.32043L3.37719 6.32665L3.37754 6.32713L3.37765 6.32727ZM1.26459 14.3082C1.26459 13.8249 1.65634 13.4332 2.13959 13.4332H9.28059C9.76384 13.4332 10.1556 13.8249 10.1556 14.3082V17.8582C10.1556 18.3414 9.76384 18.7332 9.28059 18.7332H2.13959C1.65634 18.7332 1.26459 18.3414 1.26459 17.8582V14.3082ZM2.51459 14.6832V17.4832H8.90559V14.6832H2.51459ZM0.676758 11.3089C0.538687 11.3089 0.426758 11.4209 0.426758 11.5589V12.1839C0.426758 12.322 0.538687 12.4339 0.676758 12.4339H11.1951C11.3332 12.4339 11.4451 12.322 11.4451 12.1839V11.5589C11.4451 11.4209 11.3332 11.3089 11.1951 11.3089H0.676758Z" fill="black"/>
</svg>
