<svg width="20" height="20" viewBox="0 0 20 20" fill="none" xmlns="http://www.w3.org/2000/svg">
<rect x="2.625" y="4" width="14.75" height="4.75" rx="0.625" stroke="#161616" stroke-width="1.25"/>
<rect x="2.625" y="11.25" width="14.75" height="4.75" rx="0.625" stroke="#161616" stroke-width="1.25"/>
<path d="M8.23153 14.6477L8.25994 13.8665L7.59943 14.2855L7.42898 13.9872L8.125 13.625L7.42898 13.2628L7.59943 12.9645L8.25994 13.3835L8.23153 12.6023H8.57244L8.54403 13.3835L9.20455 12.9645L9.375 13.2628L8.67898 13.625L9.375 13.9872L9.20455 14.2855L8.54403 13.8665L8.57244 14.6477H8.23153Z" fill="#161616"/>
<path d="M11.4276 14.6477L11.456 13.8665L10.7955 14.2855L10.625 13.9872L11.321 13.625L10.625 13.2628L10.7955 12.9645L11.456 13.3835L11.4276 12.6023H11.7685L11.7401 13.3835L12.4006 12.9645L12.571 13.2628L11.875 13.625L12.571 13.9872L12.4006 14.2855L11.7401 13.8665L11.7685 14.6477H11.4276Z" fill="#161616"/>
<path d="M14.6236 14.6477L14.652 13.8665L13.9915 14.2855L13.821 13.9872L14.517 13.625L13.821 13.2628L13.9915 12.9645L14.652 13.3835L14.6236 12.6023H14.9645L14.9361 13.3835L15.5966 12.9645L15.767 13.2628L15.071 13.625L15.767 13.9872L15.5966 14.2855L14.9361 13.8665L14.9645 14.6477H14.6236Z" fill="#161616"/>
<path d="M5.03551 14.6477L5.06392 13.8665L4.40341 14.2855L4.23296 13.9872L4.92898 13.625L4.23296 13.2628L4.40341 12.9645L5.06392 13.3835L5.03551 12.6023H5.37642L5.34801 13.3835L6.00852 12.9645L6.17898 13.2628L5.48296 13.625L6.17898 13.9872L6.00852 14.2855L5.34801 13.8665L5.37642 14.6477H5.03551Z" fill="#161616"/>
</svg>
