<svg width="150" height="150" viewBox="0 0 150 150" fill="none" xmlns="http://www.w3.org/2000/svg">
<path d="M67.0757 67.6705C66.9053 66.2311 66.214 65.1136 65.0019 64.3182C63.7897 63.5227 62.303 63.125 60.5416 63.125C59.2537 63.125 58.1269 63.3333 57.1609 63.75C56.2045 64.1667 55.4564 64.7396 54.9166 65.4688C54.3863 66.1979 54.1212 67.0265 54.1212 67.9545C54.1212 68.7311 54.3058 69.3987 54.6751 69.9574C55.0539 70.5066 55.5369 70.9659 56.124 71.3352C56.7111 71.6951 57.3267 71.9934 57.9706 72.2301C58.6145 72.4574 59.2064 72.642 59.7462 72.7841L62.7007 73.5795C63.4583 73.7784 64.3011 74.053 65.2291 74.4034C66.1666 74.7538 67.0615 75.232 67.9138 75.8381C68.7755 76.4347 69.4858 77.2017 70.0445 78.1392C70.6032 79.0767 70.8825 80.2273 70.8825 81.5909C70.8825 83.1629 70.4706 84.5833 69.6467 85.8523C68.8323 87.1212 67.6392 88.1297 66.0672 88.8778C64.5047 89.6259 62.606 90 60.3712 90C58.2878 90 56.4839 89.6638 54.9592 88.9915C53.4441 88.3191 52.2509 87.3816 51.3797 86.179C50.518 84.9763 50.0303 83.5795 49.9166 81.9886H53.553C53.6477 83.0871 54.017 83.9962 54.6609 84.7159C55.3144 85.4261 56.1382 85.9564 57.1325 86.3068C58.1363 86.6477 59.2159 86.8182 60.3712 86.8182C61.7159 86.8182 62.9233 86.6004 63.9933 86.1648C65.0634 85.7197 65.9109 85.1042 66.5359 84.3182C67.1609 83.5227 67.4734 82.5947 67.4734 81.5341C67.4734 80.5682 67.2036 79.7822 66.6638 79.1761C66.124 78.5701 65.4138 78.0777 64.5331 77.6989C63.6524 77.3201 62.7007 76.9886 61.678 76.7045L58.0984 75.6818C55.8257 75.0284 54.0265 74.0956 52.7007 72.8835C51.375 71.6714 50.7121 70.0852 50.7121 68.125C50.7121 66.4962 51.1524 65.0758 52.0331 63.8636C52.9233 62.642 54.1164 61.6951 55.6126 61.0227C57.1183 60.3409 58.7992 60 60.6553 60C62.5303 60 64.1969 60.3362 65.6553 61.0085C67.1136 61.6714 68.2689 62.5805 69.1212 63.7358C69.9829 64.8911 70.4375 66.2027 70.4848 67.6705H67.0757Z" fill="black"/>
<path d="M100.084 69.4886H96.5608C96.3525 68.4754 95.9879 67.5852 95.4671 66.8182C94.9557 66.0511 94.3307 65.4072 93.5921 64.8864C92.8629 64.3561 92.0532 63.9583 91.1631 63.6932C90.2729 63.428 89.3449 63.2955 88.379 63.2955C86.6176 63.2955 85.022 63.7405 83.5921 64.6307C82.1716 65.5208 81.04 66.8324 80.1972 68.5653C79.3638 70.2983 78.9472 72.4242 78.9472 74.9432C78.9472 77.4621 79.3638 79.5881 80.1972 81.321C81.04 83.054 82.1716 84.3655 83.5921 85.2557C85.022 86.1458 86.6176 86.5909 88.379 86.5909C89.3449 86.5909 90.2729 86.4583 91.1631 86.1932C92.0532 85.928 92.8629 85.535 93.5921 85.0142C94.3307 84.4839 94.9557 83.8352 95.4671 83.0682C95.9879 82.2917 96.3525 81.4015 96.5608 80.3977H100.084C99.8184 81.8845 99.3354 83.215 98.6347 84.3892C97.9339 85.5635 97.0627 86.5625 96.021 87.3864C94.9794 88.2008 93.8099 88.821 92.5125 89.2472C91.2246 89.6733 89.8468 89.8864 88.379 89.8864C85.8979 89.8864 83.6915 89.2803 81.7597 88.0682C79.8278 86.8561 78.308 85.1326 77.2 82.8977C76.0921 80.6629 75.5381 78.0114 75.5381 74.9432C75.5381 71.875 76.0921 69.2235 77.2 66.9886C78.308 64.7538 79.8278 63.0303 81.7597 61.8182C83.6915 60.6061 85.8979 60 88.379 60C89.8468 60 91.2246 60.2131 92.5125 60.6392C93.8099 61.0653 94.9794 61.6903 96.021 62.5142C97.0627 63.3286 97.9339 64.3229 98.6347 65.4972C99.3354 66.6619 99.8184 67.9924 100.084 69.4886Z" fill="black"/>
</svg>
