<svg width="20" height="20" viewBox="0 0 20 20" fill="none" xmlns="http://www.w3.org/2000/svg">
<path fill-rule="evenodd" clip-rule="evenodd" d="M3.75 1.875C3.05964 1.875 2.5 2.43464 2.5 3.125V16.875C2.5 17.5654 3.05964 18.125 3.75 18.125H16.25C16.9404 18.125 17.5 17.5654 17.5 16.875V3.125C17.5 2.43464 16.9404 1.875 16.25 1.875H3.75ZM4.99729 3.13H3.74729V16.88H4.99729V3.13ZM6.24729 3.13H16.2473V16.88H6.24729V3.13ZM8.57439 10.9212C8.4865 11.1019 8.27654 11.2728 7.89324 11.2728C7.38299 11.2728 7.03143 10.9774 7.03143 10.4818C7.03143 10.0057 7.36102 9.70298 7.96893 9.70298H8.57195V9.4857C8.57195 9.27329 8.44012 9.15611 8.22039 9.15611C7.99822 9.15611 7.86639 9.27818 7.85662 9.4564H7.12664C7.14129 9.0316 7.40252 8.58726 8.23016 8.58726C8.85516 8.58726 9.34344 8.85093 9.34344 9.49546V11.2337H8.60857V10.9212H8.57439ZM7.80291 10.4208C7.80291 10.6258 7.97869 10.7284 8.1618 10.7284C8.38396 10.7284 8.57195 10.5917 8.57195 10.3841V10.1278H8.17645C7.93475 10.1278 7.80291 10.245 7.80291 10.4208ZM11.6681 11.2728C12.2565 11.2728 12.6349 10.8382 12.6349 10.0448V9.82994C12.6349 9.02671 12.2516 8.60679 11.6706 8.60679C11.3166 8.60679 11.0358 8.77769 10.9308 9.02915H10.8942V7.73521H10.1105V11.2435H10.8869V10.8334H10.9235C11.0358 11.1019 11.2995 11.2728 11.6681 11.2728ZM11.3703 10.6673C11.0846 10.6673 10.8917 10.4501 10.8917 10.0204V9.85679C10.8917 9.42954 11.0846 9.2147 11.3703 9.2147C11.6388 9.2147 11.8268 9.43199 11.8268 9.85679V10.0228C11.8268 10.4476 11.6413 10.6673 11.3703 10.6673ZM14.3276 11.2826C13.5903 11.2826 13.1215 10.8089 13.1215 10.0106V9.82017C13.1215 9.08531 13.5732 8.57749 14.33 8.57749C15.0234 8.57749 15.4433 9.00474 15.4555 9.5687H14.7475C14.7255 9.35874 14.5766 9.18296 14.3618 9.18296C14.0834 9.18296 13.9101 9.42954 13.9101 9.82261V10.0033C13.9101 10.4305 14.0834 10.6795 14.3642 10.6795C14.6303 10.6795 14.7353 10.5038 14.7548 10.3109H15.4628C15.4287 10.975 14.955 11.2826 14.3276 11.2826Z" fill="#161616"/>
</svg>
