<svg width="20" height="20" viewBox="0 0 20 20" fill="none" xmlns="http://www.w3.org/2000/svg">
<path d="M10.9742 16.174L6.58216 3.61H4.65616L0.26416 16.174H1.79416L3.05416 12.466H8.13016L9.39016 16.174H10.9742ZM7.75216 11.134H3.41416L5.53816 5.014H5.62816L7.75216 11.134Z" fill="black"/>
<path d="M19.7359 16.174V14.914H18.6739V9.802C18.6739 7.84 17.3419 6.67 15.1099 6.67C13.4359 6.67 12.3199 7.498 11.8159 8.488L12.6799 9.298C13.1839 8.452 13.9219 7.912 15.0379 7.912C16.5139 7.912 17.2339 8.632 17.2339 9.946V10.864H15.3979C12.6979 10.864 11.4379 11.836 11.4379 13.582C11.4379 15.31 12.5899 16.39 14.5519 16.39C15.8479 16.39 16.8379 15.796 17.2339 14.662H17.3239C17.4319 15.526 17.8639 16.174 18.9259 16.174H19.7359ZM14.7859 15.166C13.6699 15.166 12.9499 14.644 12.9499 13.726V13.348C12.9499 12.448 13.6879 11.944 15.3259 11.944H17.2339V13.474C17.2339 14.428 16.2079 15.166 14.7859 15.166Z" fill="black"/>
</svg>
