<svg width="67" height="48" viewBox="0 0 67 48" fill="none" xmlns="http://www.w3.org/2000/svg">
<g clip-path="url(#clip0_617_7615)">
<path d="M66.9696 47.3551V40.1806C58.3463 41.4331 50.2223 35.8047 48.3651 27.2912H62.2217V20.2573H48.3651C50.214 11.7307 58.3306 6.07673 66.9696 7.29753V0.12304C58.2404 -0.769241 49.731 3.22637 44.8423 10.5129C39.9535 17.7995 39.4828 27.1885 43.6183 34.9275C47.7539 42.6664 55.821 47.493 64.5956 47.4782C65.4045 47.4782 66.1958 47.4782 66.9696 47.3551ZM0.5 23.7391C0.5 36.8498 11.1284 47.4782 24.2391 47.4782C25.0851 47.4777 25.9305 47.4307 26.7713 47.3375V40.163C20.3019 41.1588 13.8506 38.2641 10.2936 32.7693C6.73658 27.2746 6.73658 20.2036 10.2936 14.7088C13.8506 9.21407 20.3019 6.31931 26.7713 7.31512V0.140625C25.9303 0.049209 25.0851 0.00225157 24.2391 -5.17018e-05C11.1284 -5.17018e-05 0.5 10.6283 0.5 23.7391Z" fill="#161616"/>
</g>
<defs>
<clipPath id="clip0_617_7615">
<rect width="67" height="48" fill="white"/>
</clipPath>
</defs>
</svg>
