<svg width="48" height="60" viewBox="0 0 48 60" fill="none" xmlns="http://www.w3.org/2000/svg">
<path fill-rule="evenodd" clip-rule="evenodd" d="M1.25 1.25H46.75V29H1.25V1.25ZM1.25 30.25V58.75H46.75V30.25H1.25ZM0 0H1.25H46.75H48V1.25V58.75V60H46.75H1.25H0V58.75V1.25V0Z" fill="#161616"/>
<path d="M13 9V22.3333H23V20.0882H15.6586V16.4518H22.2578V14.2066H15.6586V11.259H22.7571V9H13Z" fill="#161616"/>
<path d="M35.6667 18.1726L33.132 17.3734L33.1453 17.3867C33.0106 18.1746 32.6349 18.9009 32.0704 19.4647C31.5743 19.8974 30.9359 20.13 30.2789 20.1174C29.3949 20.1452 28.5477 19.7617 27.9831 19.0784C27.295 18.0576 26.9808 16.829 27.0939 15.6017C26.9875 14.4168 27.3025 13.2323 27.9831 12.2582C28.5675 11.58 29.4258 11.2031 30.3187 11.2326C30.9554 11.2123 31.5793 11.4148 32.0836 11.8053C32.5479 12.1937 32.8662 12.7294 32.986 13.3239L35.5738 12.7112C35.3539 11.8146 34.8952 10.9949 34.2467 10.3401C33.1861 9.40922 31.8051 8.9312 30.3983 9.00801C28.7504 8.94142 27.1541 9.59206 26.019 10.793C24.8333 12.1803 24.2334 13.9772 24.3469 15.8015C24.2691 17.5555 24.8843 19.2694 26.0588 20.5703C27.1536 21.7384 28.6952 22.3787 30.2921 22.3287C31.5195 22.3792 32.7287 22.0183 33.7292 21.303C34.7047 20.5056 35.3867 19.4038 35.6667 18.1726Z" fill="#161616"/>
<path fill-rule="evenodd" clip-rule="evenodd" d="M7 51.6667V38.344H12.6777C13.7278 38.2948 14.779 38.4157 15.7909 38.7019C16.4357 38.9424 16.9814 39.3931 17.3406 39.9818C17.7346 40.6073 17.9394 41.3339 17.9303 42.0738C17.962 42.984 17.6427 43.8713 17.0389 44.5512C16.328 45.2597 15.3906 45.6935 14.392 45.7761C14.9225 46.0769 15.4074 46.4523 15.832 46.8909C16.4047 47.5657 16.9186 48.2886 17.368 49.0517L19 51.6529H15.7909L13.8434 48.7764C13.4279 48.0966 12.9698 47.4438 12.472 46.8221C12.2503 46.576 11.9727 46.3871 11.6629 46.2715C11.2163 46.15 10.7536 46.0989 10.2914 46.1202H9.74286V51.6254L7 51.6667ZM9.74286 43.9731H11.7314C12.5321 43.9961 13.3328 43.9268 14.1177 43.7667C14.4245 43.6677 14.6899 43.4692 14.872 43.2024C15.0647 42.904 15.1605 42.553 15.1463 42.1977C15.1654 41.8035 15.0384 41.4161 14.7897 41.1104C14.5237 40.8212 14.1641 40.6359 13.7749 40.5874H9.70172L9.74286 43.9731Z" fill="#161616"/>
<path d="M20.3333 51.6667V38.3333H29.861V40.5923H22.9919V43.54H29.5101V45.7851H22.9919V49.4215H30.3333V51.6667H20.3333Z" fill="#161616"/>
<path fill-rule="evenodd" clip-rule="evenodd" d="M32.3333 38.3466V51.6529L34.9107 51.6667V46.6493H36.7149C37.6232 46.669 38.5313 46.6045 39.428 46.4568C39.9165 46.3377 40.3773 46.1229 40.7845 45.8245C41.262 45.4668 41.6443 44.9945 41.8968 44.4499C42.2054 43.8088 42.3544 43.1009 42.3309 42.388C42.3467 41.5019 42.0803 40.6343 41.5713 39.9136C41.1187 39.2481 40.4523 38.7622 39.6857 38.539C38.6503 38.3674 37.6004 38.3029 36.5521 38.3466H32.3333ZM34.9107 44.3812V40.6009H36.2673C36.8928 40.5851 37.5186 40.6173 38.1393 40.6972C38.5482 40.7662 38.9215 40.9747 39.1974 41.2882C39.4831 41.6179 39.6335 42.0457 39.6179 42.4842C39.6251 42.8507 39.5209 43.2106 39.3194 43.5151C39.119 43.8178 38.8294 44.0487 38.492 44.175C37.8104 44.3531 37.1056 44.4227 36.4029 44.3812H34.9107Z" fill="#161616"/>
</svg>
