<svg width="64" height="48" viewBox="0 0 64 48" fill="none" xmlns="http://www.w3.org/2000/svg">
<path fill-rule="evenodd" clip-rule="evenodd" d="M30.93 2.99995C27.0653 1.25392 22.5532 1.77661 19.19 4.35995C13.9356 7.22962 7.77107 7.94325 2 6.34995V44.1199C8.16598 45.9799 14.8439 44.9191 20.13 41.24C23.5 39.5767 27.4061 39.3741 30.93 40.68V2.99995ZM41.15 21V23H44.39V34H41.15V36H55.15V34H51.88V21H41.15ZM48.15 10.9999C46.0845 10.9999 44.41 12.6744 44.41 14.74C44.41 16.8055 46.0845 18.4799 48.15 18.4799C50.2155 18.4799 51.89 16.8055 51.89 14.74C51.89 13.7446 51.4932 12.7902 50.7875 12.0883C50.0818 11.3863 49.1254 10.9946 48.13 10.9999H48.15ZM44.66 4.35995C41.2968 1.77661 36.7847 1.25392 32.92 2.99995V40.68C36.4439 39.3741 40.35 39.5767 43.72 41.24C49.0055 44.9205 55.6841 45.9814 61.85 44.1199V6.34995C56.0776 7.94021 49.9131 7.22298 44.66 4.34995V4.35995ZM63.85 3.54995V45.5499C56.7858 48.2253 48.8593 47.2727 42.63 43C39.2044 41.3476 35.1832 41.4973 31.89 43.4C27.8676 41.0746 22.8411 41.3981 19.15 44.22C13.2633 47.4254 6.27326 47.9108 0 45.5499V3.54995C6.64693 6.33259 14.2549 5.5254 20.17 1.40995C23.8653 -0.426615 28.198 -0.470826 31.93 1.28995C35.662 -0.470826 39.9947 -0.426615 43.69 1.40995C49.6009 5.52513 57.2042 6.336 63.85 3.55995" fill="#161616"/>
</svg>
