<svg width="48" height="28" viewBox="0 0 48 28" fill="none" xmlns="http://www.w3.org/2000/svg">
<path d="M11.3857 6H8V21.2727H10.6548V10.7578H10.7965L15.0174 21.228H17.0011L21.2219 10.7802H21.3636V21.2727H24.0185V6H20.6328L16.0987 17.0668H15.9197L11.3857 6Z" fill="#161616"/>
<path fill-rule="evenodd" clip-rule="evenodd" d="M27.3512 21.2727H32.5267C34.0778 21.2727 35.4052 20.967 36.5089 20.3555C37.6176 19.744 38.4652 18.8665 39.0519 17.723C39.6435 16.5795 39.9393 15.2124 39.9393 13.6214C39.9393 12.0355 39.646 10.6733 39.0593 9.5348C38.4727 8.39631 37.6325 7.52379 36.5387 6.91726C35.45 6.30575 34.1474 6 32.6311 6H27.3512V21.2727ZM32.3924 18.8789H30.1179V8.39382H32.4745C33.5086 8.39382 34.3736 8.58771 35.0696 8.9755C35.7706 9.35831 36.3001 9.9375 36.6581 10.7131C37.016 11.4837 37.195 12.4531 37.195 13.6214C37.195 14.7898 37.016 15.7642 36.6581 16.5447C36.3001 17.3203 35.7657 17.9045 35.0547 18.2972C34.3438 18.685 33.4564 18.8789 32.3924 18.8789Z" fill="#161616"/>
<path fill-rule="evenodd" clip-rule="evenodd" d="M0 0H48V28H0V0ZM1.25 1.25H46.75V26.75H1.25V1.25Z" fill="#161616"/>
</svg>
