<svg width="56" height="60" viewBox="0 0 56 60" fill="none" xmlns="http://www.w3.org/2000/svg">
<path fill-rule="evenodd" clip-rule="evenodd" d="M16 24.2727V9H21.7273C22.9006 9 23.8849 9.20384 24.6804 9.61151C25.4808 10.0192 26.0849 10.5909 26.4925 11.3267C26.9052 12.0575 27.1115 12.9102 27.1115 13.8846C27.1115 14.864 26.9027 15.7141 26.4851 16.435C26.0724 17.1509 25.4634 17.7053 24.658 18.098C24.5637 18.1434 24.4668 18.1862 24.3674 18.2263L27.6708 24.2727H24.5835L21.582 18.6797H18.7667V24.2727H16ZM21.3171 16.3828H18.7667V11.3118H21.3022C21.9933 11.3118 22.5575 11.4137 22.995 11.6175C23.4325 11.8164 23.7582 12.1097 23.9719 12.4975C24.1857 12.8803 24.2926 13.3427 24.2926 13.8846C24.2926 14.4265 24.1857 14.8839 23.9719 15.2567C23.7631 15.6246 23.44 15.9055 23.0025 16.0994C22.565 16.2884 22.0032 16.3828 21.3171 16.3828Z" fill="#161616"/>
<path d="M32.0663 12.8182L34.3781 17.0465L36.7271 12.8182H39.5833L36.1305 18.5455L39.643 24.2727H36.8017L34.3781 20.1488L31.9768 24.2727H29.1131L32.6032 18.5455L29.2026 12.8182H32.0663Z" fill="#161616"/>
<path fill-rule="evenodd" clip-rule="evenodd" d="M17.3643 47.6239C17.8047 46.7859 18.0249 45.7791 18.0249 44.6037C18.0249 43.4283 17.8047 42.4233 17.3643 41.5888C16.9276 40.7507 16.331 40.1097 15.5746 39.6658C14.8217 39.2219 13.9677 39 13.0124 39C12.0572 39 11.2013 39.2219 10.445 39.6658C9.69212 40.1097 9.09553 40.7507 8.65518 41.5888C8.2184 42.4233 8 43.4283 8 44.6037C8 45.7756 8.2184 46.7805 8.65518 47.6186C9.09553 48.4531 9.69212 49.0941 10.445 49.5415C11.2013 49.9854 12.0572 50.2074 13.0124 50.2074C13.9677 50.2074 14.8217 49.9854 15.5746 49.5415C16.331 49.0977 16.9276 48.4585 17.3643 47.6239ZM15.6491 42.5103C15.9084 43.0785 16.038 43.7763 16.038 44.6037C16.038 45.4311 15.9084 46.1307 15.6491 46.7024C15.3935 47.2706 15.0384 47.7021 14.5838 47.9968C14.1293 48.288 13.6055 48.4336 13.0124 48.4336C12.4194 48.4336 11.8956 48.288 11.4411 47.9968C10.9865 47.7021 10.6296 47.2706 10.3704 46.7024C10.1147 46.1307 9.98686 45.4311 9.98686 44.6037C9.98686 43.7763 10.1147 43.0785 10.3704 42.5103C10.6296 41.9386 10.9865 41.5071 11.4411 41.2159C11.8956 40.9212 12.4194 40.7738 13.0124 40.7738C13.6055 40.7738 14.1293 40.9212 14.5838 41.2159C15.0384 41.5071 15.3935 41.9386 15.6491 42.5103Z" fill="#161616"/>
<path d="M27.4202 50.0582H29.178V39.1491H27.2125V46.5852H27.1166L21.9817 39.1491H20.2132V50.0582H22.1894V42.6275H22.28L27.4202 50.0582Z" fill="#161616"/>
<path d="M31.6514 39.1491H33.6276V48.4016H38.4323V50.0582H31.6514V39.1491Z" fill="#161616"/>
<path d="M40.855 39.1491H38.6231L42.5915 45.9886V50.0582H44.5624V45.9886L48.5308 39.1491H46.2989L43.6302 43.9751H43.5237L40.855 39.1491Z" fill="#161616"/>
<path fill-rule="evenodd" clip-rule="evenodd" d="M0 0V60H56V0H0ZM54.75 1.25H1.25V58.75H54.75V1.25Z" fill="#161616"/>
</svg>
