<svg width="49" height="48" viewBox="0 0 49 48" fill="none" xmlns="http://www.w3.org/2000/svg">
<path d="M28.5 39V33C28.5 32.7083 28.4062 32.4688 28.2188 32.2812C28.0313 32.0938 27.7917 32 27.5 32H21.5C21.2083 32 20.9687 32.0938 20.7812 32.2812C20.5938 32.4688 20.5 32.7083 20.5 33V39C20.5 39.2917 20.5938 39.5312 20.7812 39.7188C20.9687 39.9062 21.2083 40 21.5 40H27.5C27.7917 40 28.0313 39.9062 28.2188 39.7188C28.4062 39.5312 28.5 39.2917 28.5 39ZM36.5 18C36.5 16.1667 35.9219 14.4688 34.7656 12.9062C33.6094 11.3438 32.1667 10.1354 30.4375 9.28125C28.7083 8.42708 26.9375 8 25.125 8C20.0625 8 16.1979 10.2188 13.5312 14.6562C13.2188 15.1562 13.3021 15.5937 13.7812 15.9688L17.9062 19.0938C18.0521 19.2188 18.25 19.2812 18.5 19.2812C18.8333 19.2812 19.0938 19.1562 19.2812 18.9062C20.3854 17.4896 21.2812 16.5313 21.9688 16.0312C22.6771 15.5312 23.5729 15.2812 24.6562 15.2812C25.6562 15.2812 26.5469 15.5521 27.3281 16.0938C28.1094 16.6354 28.5 17.25 28.5 17.9375C28.5 18.7292 28.2917 19.3646 27.875 19.8438C27.4583 20.3229 26.75 20.7917 25.75 21.25C24.4375 21.8333 23.2344 22.7344 22.1406 23.9531C21.0469 25.1719 20.5 26.4792 20.5 27.875V29C20.5 29.2917 20.5938 29.5312 20.7812 29.7188C20.9687 29.9062 21.2083 30 21.5 30H27.5C27.7917 30 28.0313 29.9062 28.2188 29.7188C28.4062 29.5312 28.5 29.2917 28.5 29C28.5 28.6042 28.724 28.0885 29.1719 27.4531C29.6198 26.8177 30.1875 26.3021 30.875 25.9062C31.5417 25.5312 32.0521 25.2344 32.4062 25.0156C32.7604 24.7969 33.2396 24.4323 33.8438 23.9219C34.4479 23.4115 34.9115 22.9115 35.2344 22.4219C35.5573 21.9323 35.849 21.3021 36.1094 20.5312C36.3698 19.7604 36.5 18.9167 36.5 18ZM48.5 24C48.5 28.3542 47.4271 32.3698 45.2812 36.0469C43.1354 39.724 40.224 42.6354 36.5469 44.7812C32.8698 46.9271 28.8542 48 24.5 48C20.1458 48 16.1302 46.9271 12.4531 44.7812C8.77604 42.6354 5.86458 39.724 3.71875 36.0469C1.57292 32.3698 0.5 28.3542 0.5 24C0.5 19.6458 1.57292 15.6302 3.71875 11.9531C5.86458 8.27604 8.77604 5.36458 12.4531 3.21875C16.1302 1.07292 20.1458 0 24.5 0C28.8542 0 32.8698 1.07292 36.5469 3.21875C40.224 5.36458 43.1354 8.27604 45.2812 11.9531C47.4271 15.6302 48.5 19.6458 48.5 24Z" fill="#161616"/>
</svg>
