<svg width="669" height="272" viewBox="0 0 669 272" fill="none" xmlns="http://www.w3.org/2000/svg">
<g clip-path="url(#clip0_2756_880)">
<rect width="669" height="272" fill="white"/>
<rect width="127" height="40" transform="translate(48 48)" fill="#E5E5E5"/>
<path d="M86.5729 63.004V73H93.5169V71.88H87.9029V68.422H93.0969V67.302H87.9029V64.124H93.4749V63.004H86.5729ZM95.0955 65.762V73H96.2855V68.912C96.2855 68.5853 96.3275 68.2867 96.4115 68.016C96.5049 67.736 96.6402 67.4933 96.8175 67.288C96.9949 67.0827 97.2142 66.924 97.4755 66.812C97.7462 66.7 98.0635 66.644 98.4275 66.644C98.8849 66.644 99.2442 66.7747 99.5055 67.036C99.7669 67.2973 99.8975 67.652 99.8975 68.1V73H101.088V68.24C101.088 67.848 101.046 67.4933 100.962 67.176C100.887 66.8493 100.752 66.5693 100.556 66.336C100.36 66.1027 100.103 65.9207 99.7855 65.79C99.4682 65.6593 99.0715 65.594 98.5955 65.594C97.5222 65.594 96.7382 66.0327 96.2435 66.91H96.2155V65.762H95.0955ZM109.447 72.972C109.241 73.0933 108.957 73.154 108.593 73.154C108.285 73.154 108.037 73.07 107.851 72.902C107.673 72.7247 107.585 72.44 107.585 72.048C107.258 72.44 106.875 72.7247 106.437 72.902C106.007 73.07 105.541 73.154 105.037 73.154C104.71 73.154 104.397 73.1167 104.099 73.042C103.809 72.9673 103.557 72.8507 103.343 72.692C103.128 72.5333 102.955 72.328 102.825 72.076C102.703 71.8147 102.643 71.502 102.643 71.138C102.643 70.7273 102.713 70.3913 102.853 70.13C102.993 69.8687 103.175 69.6587 103.399 69.5C103.632 69.332 103.893 69.206 104.183 69.122C104.481 69.038 104.785 68.968 105.093 68.912C105.419 68.8467 105.727 68.8 106.017 68.772C106.315 68.7347 106.577 68.688 106.801 68.632C107.025 68.5667 107.202 68.478 107.333 68.366C107.463 68.2447 107.529 68.072 107.529 67.848C107.529 67.5867 107.477 67.3767 107.375 67.218C107.281 67.0593 107.155 66.938 106.997 66.854C106.847 66.77 106.675 66.714 106.479 66.686C106.292 66.658 106.105 66.644 105.919 66.644C105.415 66.644 104.995 66.742 104.659 66.938C104.323 67.1247 104.141 67.484 104.113 68.016H102.923C102.941 67.568 103.035 67.19 103.203 66.882C103.371 66.574 103.595 66.3267 103.875 66.14C104.155 65.944 104.472 65.804 104.827 65.72C105.191 65.636 105.578 65.594 105.989 65.594C106.315 65.594 106.637 65.6173 106.955 65.664C107.281 65.7107 107.575 65.8087 107.837 65.958C108.098 66.098 108.308 66.2987 108.467 66.56C108.625 66.8213 108.705 67.162 108.705 67.582V71.306C108.705 71.586 108.719 71.7913 108.747 71.922C108.784 72.0527 108.896 72.118 109.083 72.118C109.185 72.118 109.307 72.0947 109.447 72.048V72.972ZM107.515 69.262C107.365 69.374 107.169 69.458 106.927 69.514C106.684 69.5607 106.427 69.6027 106.157 69.64C105.895 69.668 105.629 69.7053 105.359 69.752C105.088 69.7893 104.845 69.8547 104.631 69.948C104.416 70.0413 104.239 70.1767 104.099 70.354C103.968 70.522 103.903 70.7553 103.903 71.054C103.903 71.25 103.94 71.418 104.015 71.558C104.099 71.6887 104.201 71.796 104.323 71.88C104.453 71.964 104.603 72.0247 104.771 72.062C104.939 72.0993 105.116 72.118 105.303 72.118C105.695 72.118 106.031 72.0667 106.311 71.964C106.591 71.852 106.819 71.7167 106.997 71.558C107.174 71.39 107.305 71.2127 107.389 71.026C107.473 70.83 107.515 70.648 107.515 70.48V69.262ZM110.756 63.004V73H111.946V72.034H111.974C112.105 72.2487 112.264 72.4307 112.45 72.58C112.646 72.72 112.852 72.832 113.066 72.916C113.281 73 113.496 73.0607 113.71 73.098C113.934 73.1353 114.135 73.154 114.312 73.154C114.863 73.154 115.344 73.056 115.754 72.86C116.174 72.664 116.52 72.398 116.79 72.062C117.07 71.7167 117.276 71.3153 117.406 70.858C117.546 70.4007 117.616 69.9153 117.616 69.402C117.616 68.8887 117.546 68.4033 117.406 67.946C117.266 67.4887 117.056 67.0873 116.776 66.742C116.506 66.3873 116.16 66.1073 115.74 65.902C115.33 65.6967 114.844 65.594 114.284 65.594C113.78 65.594 113.318 65.6873 112.898 65.874C112.478 66.0513 112.17 66.3407 111.974 66.742H111.946V63.004H110.756ZM116.356 69.318C116.356 69.6727 116.319 70.018 116.244 70.354C116.17 70.69 116.048 70.9887 115.88 71.25C115.712 71.5113 115.488 71.7213 115.208 71.88C114.938 72.0387 114.597 72.118 114.186 72.118C113.776 72.118 113.426 72.0433 113.136 71.894C112.847 71.7353 112.609 71.53 112.422 71.278C112.245 71.026 112.114 70.7367 112.03 70.41C111.946 70.074 111.904 69.7287 111.904 69.374C111.904 69.038 111.942 68.7067 112.016 68.38C112.1 68.0533 112.231 67.764 112.408 67.512C112.586 67.2507 112.814 67.0407 113.094 66.882C113.374 66.7233 113.715 66.644 114.116 66.644C114.499 66.644 114.83 66.7187 115.11 66.868C115.4 67.0173 115.633 67.218 115.81 67.47C115.997 67.722 116.132 68.0113 116.216 68.338C116.31 68.6553 116.356 68.982 116.356 69.318ZM119.243 63.004V73H120.433V63.004H119.243ZM127.463 68.688H123.305C123.323 68.408 123.384 68.1467 123.487 67.904C123.589 67.652 123.729 67.4327 123.907 67.246C124.084 67.0593 124.294 66.9147 124.537 66.812C124.789 66.7 125.069 66.644 125.377 66.644C125.675 66.644 125.946 66.7 126.189 66.812C126.441 66.9147 126.655 67.0593 126.833 67.246C127.019 67.4233 127.164 67.638 127.267 67.89C127.379 68.142 127.444 68.408 127.463 68.688ZM128.611 70.704H127.435C127.332 71.18 127.117 71.5347 126.791 71.768C126.473 72.0013 126.063 72.118 125.559 72.118C125.167 72.118 124.826 72.0527 124.537 71.922C124.247 71.7913 124.009 71.6187 123.823 71.404C123.636 71.18 123.501 70.928 123.417 70.648C123.333 70.3587 123.295 70.0553 123.305 69.738H128.723C128.741 69.2993 128.699 68.8373 128.597 68.352C128.503 67.8667 128.326 67.4187 128.065 67.008C127.813 66.5973 127.472 66.2613 127.043 66C126.623 65.7293 126.091 65.594 125.447 65.594C124.952 65.594 124.495 65.6873 124.075 65.874C123.664 66.0607 123.305 66.322 122.997 66.658C122.698 66.994 122.465 67.3907 122.297 67.848C122.129 68.3053 122.045 68.8093 122.045 69.36C122.063 69.9107 122.143 70.4193 122.283 70.886C122.432 71.3527 122.651 71.754 122.941 72.09C123.23 72.426 123.585 72.6873 124.005 72.874C124.434 73.0607 124.938 73.154 125.517 73.154C126.338 73.154 127.019 72.9487 127.561 72.538C128.102 72.1273 128.452 71.516 128.611 70.704ZM130.984 69.444C130.984 69.0893 131.022 68.744 131.096 68.408C131.171 68.072 131.292 67.7733 131.46 67.512C131.628 67.2507 131.852 67.0407 132.132 66.882C132.412 66.7233 132.753 66.644 133.154 66.644C133.565 66.644 133.915 66.7233 134.204 66.882C134.494 67.0313 134.727 67.232 134.904 67.484C135.091 67.736 135.226 68.03 135.31 68.366C135.394 68.6927 135.436 69.0333 135.436 69.388C135.436 69.724 135.394 70.0553 135.31 70.382C135.236 70.7087 135.11 71.0027 134.932 71.264C134.755 71.516 134.526 71.7213 134.246 71.88C133.966 72.0387 133.626 72.118 133.224 72.118C132.842 72.118 132.506 72.0433 132.216 71.894C131.936 71.7447 131.703 71.544 131.516 71.292C131.339 71.04 131.204 70.7553 131.11 70.438C131.026 70.1113 130.984 69.78 130.984 69.444ZM136.584 73V63.004H135.394V66.728H135.366C135.236 66.5133 135.072 66.336 134.876 66.196C134.69 66.0467 134.489 65.93 134.274 65.846C134.06 65.7527 133.845 65.6873 133.63 65.65C133.416 65.6127 133.215 65.594 133.028 65.594C132.478 65.594 131.992 65.6967 131.572 65.902C131.162 66.098 130.816 66.3687 130.536 66.714C130.266 67.05 130.06 67.4467 129.92 67.904C129.79 68.3613 129.724 68.8467 129.724 69.36C129.724 69.8733 129.794 70.3587 129.934 70.816C130.074 71.2733 130.28 71.6747 130.55 72.02C130.83 72.3653 131.176 72.6407 131.586 72.846C132.006 73.0513 132.496 73.154 133.056 73.154C133.56 73.154 134.022 73.0653 134.442 72.888C134.862 72.7107 135.17 72.4213 135.366 72.02H135.394V73H136.584Z" fill="#161616"/>
<path d="M271 184H398V224H271V184Z" fill="#E5E5E5"/>
<path d="M316.084 199.004V209H317.414V204.422H322.006V203.302H317.414V200.124H322.65V199.004H316.084ZM324.955 205.388C324.955 204.949 325.011 204.562 325.123 204.226C325.244 203.881 325.407 203.591 325.613 203.358C325.818 203.125 326.056 202.947 326.327 202.826C326.607 202.705 326.901 202.644 327.209 202.644C327.517 202.644 327.806 202.705 328.077 202.826C328.357 202.947 328.599 203.125 328.805 203.358C329.01 203.591 329.169 203.881 329.281 204.226C329.402 204.562 329.463 204.949 329.463 205.388C329.463 205.827 329.402 206.219 329.281 206.564C329.169 206.9 329.01 207.185 328.805 207.418C328.599 207.642 328.357 207.815 328.077 207.936C327.806 208.057 327.517 208.118 327.209 208.118C326.901 208.118 326.607 208.057 326.327 207.936C326.056 207.815 325.818 207.642 325.613 207.418C325.407 207.185 325.244 206.9 325.123 206.564C325.011 206.219 324.955 205.827 324.955 205.388ZM323.695 205.388C323.695 205.92 323.769 206.415 323.919 206.872C324.068 207.329 324.292 207.731 324.591 208.076C324.889 208.412 325.258 208.678 325.697 208.874C326.135 209.061 326.639 209.154 327.209 209.154C327.787 209.154 328.291 209.061 328.721 208.874C329.159 208.678 329.528 208.412 329.827 208.076C330.125 207.731 330.349 207.329 330.499 206.872C330.648 206.415 330.723 205.92 330.723 205.388C330.723 204.856 330.648 204.361 330.499 203.904C330.349 203.437 330.125 203.036 329.827 202.7C329.528 202.355 329.159 202.084 328.721 201.888C328.291 201.692 327.787 201.594 327.209 201.594C326.639 201.594 326.135 201.692 325.697 201.888C325.258 202.084 324.889 202.355 324.591 202.7C324.292 203.036 324.068 203.437 323.919 203.904C323.769 204.361 323.695 204.856 323.695 205.388ZM337.2 204.086H338.432C338.385 203.657 338.273 203.288 338.096 202.98C337.918 202.663 337.69 202.401 337.41 202.196C337.139 201.991 336.822 201.841 336.458 201.748C336.103 201.645 335.72 201.594 335.31 201.594C334.74 201.594 334.241 201.697 333.812 201.902C333.382 202.098 333.023 202.373 332.734 202.728C332.454 203.073 332.244 203.484 332.104 203.96C331.964 204.427 331.894 204.931 331.894 205.472C331.894 206.013 331.964 206.513 332.104 206.97C332.253 207.418 332.468 207.805 332.748 208.132C333.037 208.459 333.392 208.711 333.812 208.888C334.241 209.065 334.731 209.154 335.282 209.154C336.206 209.154 336.934 208.911 337.466 208.426C338.007 207.941 338.343 207.25 338.474 206.354H337.256C337.181 206.914 336.976 207.348 336.64 207.656C336.313 207.964 335.856 208.118 335.268 208.118C334.894 208.118 334.572 208.043 334.302 207.894C334.031 207.745 333.812 207.549 333.644 207.306C333.476 207.054 333.35 206.769 333.266 206.452C333.191 206.135 333.154 205.808 333.154 205.472C333.154 205.108 333.191 204.758 333.266 204.422C333.34 204.077 333.462 203.773 333.63 203.512C333.807 203.251 334.04 203.041 334.33 202.882C334.619 202.723 334.978 202.644 335.408 202.644C335.912 202.644 336.313 202.77 336.612 203.022C336.91 203.274 337.106 203.629 337.2 204.086ZM345.957 209V201.762H344.767V205.85C344.767 206.177 344.721 206.48 344.627 206.76C344.543 207.031 344.413 207.269 344.235 207.474C344.058 207.679 343.834 207.838 343.563 207.95C343.302 208.062 342.989 208.118 342.625 208.118C342.168 208.118 341.809 207.987 341.547 207.726C341.286 207.465 341.155 207.11 341.155 206.662V201.762H339.965V206.522C339.965 206.914 340.003 207.273 340.077 207.6C340.161 207.917 340.301 208.193 340.497 208.426C340.693 208.659 340.95 208.841 341.267 208.972C341.585 209.093 341.981 209.154 342.457 209.154C342.989 209.154 343.451 209.051 343.843 208.846C344.235 208.631 344.557 208.3 344.809 207.852H344.837V209H345.957ZM348.632 206.718H347.442C347.461 207.166 347.554 207.549 347.722 207.866C347.89 208.174 348.114 208.426 348.394 208.622C348.674 208.809 348.996 208.944 349.36 209.028C349.724 209.112 350.107 209.154 350.508 209.154C350.872 209.154 351.236 209.117 351.6 209.042C351.974 208.977 352.305 208.855 352.594 208.678C352.893 208.501 353.131 208.267 353.308 207.978C353.495 207.689 353.588 207.325 353.588 206.886C353.588 206.541 353.518 206.251 353.378 206.018C353.248 205.785 353.07 205.593 352.846 205.444C352.632 205.285 352.38 205.159 352.09 205.066C351.81 204.973 351.521 204.893 351.222 204.828C350.942 204.763 350.662 204.702 350.382 204.646C350.102 204.581 349.85 204.506 349.626 204.422C349.402 204.329 349.216 204.217 349.066 204.086C348.926 203.946 348.856 203.773 348.856 203.568C348.856 203.381 348.903 203.232 348.996 203.12C349.09 202.999 349.211 202.905 349.36 202.84C349.51 202.765 349.673 202.714 349.85 202.686C350.037 202.658 350.219 202.644 350.396 202.644C350.592 202.644 350.784 202.667 350.97 202.714C351.166 202.751 351.344 202.817 351.502 202.91C351.661 203.003 351.792 203.129 351.894 203.288C351.997 203.437 352.058 203.629 352.076 203.862H353.266C353.238 203.423 353.145 203.059 352.986 202.77C352.828 202.471 352.613 202.238 352.342 202.07C352.081 201.893 351.778 201.771 351.432 201.706C351.087 201.631 350.709 201.594 350.298 201.594C349.981 201.594 349.659 201.636 349.332 201.72C349.015 201.795 348.726 201.916 348.464 202.084C348.212 202.243 348.002 202.453 347.834 202.714C347.676 202.975 347.596 203.288 347.596 203.652C347.596 204.119 347.713 204.483 347.946 204.744C348.18 205.005 348.469 205.211 348.814 205.36C349.169 205.5 349.552 205.612 349.962 205.696C350.373 205.771 350.751 205.859 351.096 205.962C351.451 206.055 351.745 206.181 351.978 206.34C352.212 206.499 352.328 206.732 352.328 207.04C352.328 207.264 352.272 207.451 352.16 207.6C352.048 207.74 351.904 207.847 351.726 207.922C351.558 207.997 351.372 208.048 351.166 208.076C350.961 208.104 350.765 208.118 350.578 208.118C350.336 208.118 350.098 208.095 349.864 208.048C349.64 208.001 349.435 207.927 349.248 207.824C349.071 207.712 348.926 207.567 348.814 207.39C348.702 207.203 348.642 206.979 348.632 206.718Z" fill="#161616"/>
<path d="M271 184V182H269V184H271ZM398 184H400V182H398V184ZM398 224V226H400V224H398ZM271 224H269V226H271V224ZM271 186H398V182H271V186ZM396 184V224H400V184H396ZM398 222H271V226H398V222ZM273 224V184H269V224H273Z" fill="#003152"/>
<rect width="127" height="40" transform="translate(494 184)" fill="#B2B2B2"/>
<path d="M540.596 204.87L542.29 200.208H542.318L543.984 204.87H540.596ZM541.59 199.004L537.698 209H539.056L540.176 205.99H544.404L545.496 209H546.966L543.06 199.004H541.59ZM552.83 204.086H554.062C554.015 203.657 553.903 203.288 553.726 202.98C553.548 202.663 553.32 202.401 553.04 202.196C552.769 201.991 552.452 201.841 552.088 201.748C551.733 201.645 551.35 201.594 550.94 201.594C550.37 201.594 549.871 201.697 549.442 201.902C549.012 202.098 548.653 202.373 548.364 202.728C548.084 203.073 547.874 203.484 547.734 203.96C547.594 204.427 547.524 204.931 547.524 205.472C547.524 206.013 547.594 206.513 547.734 206.97C547.883 207.418 548.098 207.805 548.378 208.132C548.667 208.459 549.022 208.711 549.442 208.888C549.871 209.065 550.361 209.154 550.912 209.154C551.836 209.154 552.564 208.911 553.096 208.426C553.637 207.941 553.973 207.25 554.104 206.354H552.886C552.811 206.914 552.606 207.348 552.27 207.656C551.943 207.964 551.486 208.118 550.898 208.118C550.524 208.118 550.202 208.043 549.932 207.894C549.661 207.745 549.442 207.549 549.274 207.306C549.106 207.054 548.98 206.769 548.896 206.452C548.821 206.135 548.784 205.808 548.784 205.472C548.784 205.108 548.821 204.758 548.896 204.422C548.97 204.077 549.092 203.773 549.26 203.512C549.437 203.251 549.67 203.041 549.96 202.882C550.249 202.723 550.608 202.644 551.038 202.644C551.542 202.644 551.943 202.77 552.242 203.022C552.54 203.274 552.736 203.629 552.83 204.086ZM557.247 201.762V199.592H556.057V201.762H554.825V202.812H556.057V207.418C556.057 207.754 556.09 208.025 556.155 208.23C556.221 208.435 556.319 208.594 556.449 208.706C556.589 208.818 556.767 208.897 556.981 208.944C557.205 208.981 557.471 209 557.779 209H558.689V207.95H558.143C557.957 207.95 557.803 207.945 557.681 207.936C557.569 207.917 557.481 207.885 557.415 207.838C557.35 207.791 557.303 207.726 557.275 207.642C557.257 207.558 557.247 207.446 557.247 207.306V202.812H558.689V201.762H557.247ZM561.431 200.46V199.004H560.241V200.46H561.431ZM560.241 201.762V209H561.431V201.762H560.241ZM566.697 209L569.343 201.762H568.097L566.123 207.796H566.095L564.065 201.762H562.735L565.423 209H566.697ZM575.621 204.688H571.463C571.481 204.408 571.542 204.147 571.645 203.904C571.747 203.652 571.887 203.433 572.065 203.246C572.242 203.059 572.452 202.915 572.695 202.812C572.947 202.7 573.227 202.644 573.535 202.644C573.833 202.644 574.104 202.7 574.347 202.812C574.599 202.915 574.813 203.059 574.991 203.246C575.177 203.423 575.322 203.638 575.425 203.89C575.537 204.142 575.602 204.408 575.621 204.688ZM576.769 206.704H575.593C575.49 207.18 575.275 207.535 574.949 207.768C574.631 208.001 574.221 208.118 573.717 208.118C573.325 208.118 572.984 208.053 572.695 207.922C572.405 207.791 572.167 207.619 571.981 207.404C571.794 207.18 571.659 206.928 571.575 206.648C571.491 206.359 571.453 206.055 571.463 205.738H576.881C576.899 205.299 576.857 204.837 576.755 204.352C576.661 203.867 576.484 203.419 576.223 203.008C575.971 202.597 575.63 202.261 575.201 202C574.781 201.729 574.249 201.594 573.605 201.594C573.11 201.594 572.653 201.687 572.233 201.874C571.822 202.061 571.463 202.322 571.155 202.658C570.856 202.994 570.623 203.391 570.455 203.848C570.287 204.305 570.203 204.809 570.203 205.36C570.221 205.911 570.301 206.419 570.441 206.886C570.59 207.353 570.809 207.754 571.099 208.09C571.388 208.426 571.743 208.687 572.163 208.874C572.592 209.061 573.096 209.154 573.675 209.154C574.496 209.154 575.177 208.949 575.719 208.538C576.26 208.127 576.61 207.516 576.769 206.704Z" fill="#161616"/>
<rect width="127" height="40" transform="translate(48 184)" fill="#CCCCCC"/>
<path d="M93.6099 199.004V209H94.9399V204.422H100.204V209H101.534V199.004H100.204V203.302H94.9399V199.004H93.6099ZM104.545 205.388C104.545 204.949 104.601 204.562 104.713 204.226C104.835 203.881 104.998 203.591 105.203 203.358C105.409 203.125 105.647 202.947 105.917 202.826C106.197 202.705 106.491 202.644 106.799 202.644C107.107 202.644 107.397 202.705 107.667 202.826C107.947 202.947 108.19 203.125 108.395 203.358C108.601 203.591 108.759 203.881 108.871 204.226C108.993 204.562 109.053 204.949 109.053 205.388C109.053 205.827 108.993 206.219 108.871 206.564C108.759 206.9 108.601 207.185 108.395 207.418C108.19 207.642 107.947 207.815 107.667 207.936C107.397 208.057 107.107 208.118 106.799 208.118C106.491 208.118 106.197 208.057 105.917 207.936C105.647 207.815 105.409 207.642 105.203 207.418C104.998 207.185 104.835 206.9 104.713 206.564C104.601 206.219 104.545 205.827 104.545 205.388ZM103.285 205.388C103.285 205.92 103.36 206.415 103.509 206.872C103.659 207.329 103.883 207.731 104.181 208.076C104.48 208.412 104.849 208.678 105.287 208.874C105.726 209.061 106.23 209.154 106.799 209.154C107.378 209.154 107.882 209.061 108.311 208.874C108.75 208.678 109.119 208.412 109.417 208.076C109.716 207.731 109.94 207.329 110.089 206.872C110.239 206.415 110.313 205.92 110.313 205.388C110.313 204.856 110.239 204.361 110.089 203.904C109.94 203.437 109.716 203.036 109.417 202.7C109.119 202.355 108.75 202.084 108.311 201.888C107.882 201.692 107.378 201.594 106.799 201.594C106.23 201.594 105.726 201.692 105.287 201.888C104.849 202.084 104.48 202.355 104.181 202.7C103.883 203.036 103.659 203.437 103.509 203.904C103.36 204.361 103.285 204.856 103.285 205.388ZM115.138 209L117.784 201.762H116.538L114.564 207.796H114.536L112.506 201.762H111.176L113.864 209H115.138ZM124.062 204.688H119.904C119.923 204.408 119.984 204.147 120.086 203.904C120.189 203.652 120.329 203.433 120.506 203.246C120.684 203.059 120.894 202.915 121.136 202.812C121.388 202.7 121.668 202.644 121.976 202.644C122.275 202.644 122.546 202.7 122.788 202.812C123.04 202.915 123.255 203.059 123.432 203.246C123.619 203.423 123.764 203.638 123.866 203.89C123.978 204.142 124.044 204.408 124.062 204.688ZM125.21 206.704H124.034C123.932 207.18 123.717 207.535 123.39 207.768C123.073 208.001 122.662 208.118 122.158 208.118C121.766 208.118 121.426 208.053 121.136 207.922C120.847 207.791 120.609 207.619 120.422 207.404C120.236 207.18 120.1 206.928 120.016 206.648C119.932 206.359 119.895 206.055 119.904 205.738H125.322C125.341 205.299 125.299 204.837 125.196 204.352C125.103 203.867 124.926 203.419 124.664 203.008C124.412 202.597 124.072 202.261 123.642 202C123.222 201.729 122.69 201.594 122.046 201.594C121.552 201.594 121.094 201.687 120.674 201.874C120.264 202.061 119.904 202.322 119.596 202.658C119.298 202.994 119.064 203.391 118.896 203.848C118.728 204.305 118.644 204.809 118.644 205.36C118.663 205.911 118.742 206.419 118.882 206.886C119.032 207.353 119.251 207.754 119.54 208.09C119.83 208.426 120.184 208.687 120.604 208.874C121.034 209.061 121.538 209.154 122.116 209.154C122.938 209.154 123.619 208.949 124.16 208.538C124.702 208.127 125.052 207.516 125.21 206.704ZM126.674 201.762V209H127.864V205.78C127.864 205.313 127.911 204.903 128.004 204.548C128.097 204.184 128.247 203.876 128.452 203.624C128.657 203.372 128.928 203.181 129.264 203.05C129.6 202.919 130.006 202.854 130.482 202.854V201.594C129.838 201.575 129.306 201.706 128.886 201.986C128.466 202.266 128.111 202.7 127.822 203.288H127.794V201.762H126.674Z" fill="#161616"/>
<rect width="127" height="40" transform="translate(271 48)" fill="#E5E5E5"/>
<path d="M309.011 71.88V64.124H311.251C311.867 64.124 312.385 64.2127 312.805 64.39C313.225 64.558 313.566 64.81 313.827 65.146C314.098 65.4727 314.289 65.874 314.401 66.35C314.523 66.8167 314.583 67.3487 314.583 67.946C314.583 68.562 314.518 69.0893 314.387 69.528C314.266 69.9573 314.107 70.3167 313.911 70.606C313.715 70.8953 313.491 71.124 313.239 71.292C312.997 71.46 312.749 71.5907 312.497 71.684C312.245 71.768 312.007 71.824 311.783 71.852C311.559 71.8707 311.373 71.88 311.223 71.88H309.011ZM307.681 63.004V73H311.111C311.942 73 312.661 72.8833 313.267 72.65C313.874 72.4167 314.373 72.0807 314.765 71.642C315.157 71.194 315.447 70.648 315.633 70.004C315.82 69.3507 315.913 68.604 315.913 67.764C315.913 66.1587 315.498 64.964 314.667 64.18C313.837 63.396 312.651 63.004 311.111 63.004H307.681ZM318.763 64.46V63.004H317.573V64.46H318.763ZM317.573 65.762V73H318.763V65.762H317.573ZM321.494 70.718H320.304C320.323 71.166 320.416 71.5487 320.584 71.866C320.752 72.174 320.976 72.426 321.256 72.622C321.536 72.8087 321.858 72.944 322.222 73.028C322.586 73.112 322.969 73.154 323.37 73.154C323.734 73.154 324.098 73.1167 324.462 73.042C324.836 72.9767 325.167 72.8553 325.456 72.678C325.755 72.5007 325.993 72.2673 326.17 71.978C326.357 71.6887 326.45 71.3247 326.45 70.886C326.45 70.5407 326.38 70.2513 326.24 70.018C326.11 69.7847 325.932 69.5933 325.708 69.444C325.494 69.2853 325.242 69.1593 324.952 69.066C324.672 68.9727 324.383 68.8933 324.084 68.828C323.804 68.7627 323.524 68.702 323.244 68.646C322.964 68.5807 322.712 68.506 322.488 68.422C322.264 68.3287 322.078 68.2167 321.928 68.086C321.788 67.946 321.718 67.7733 321.718 67.568C321.718 67.3813 321.765 67.232 321.858 67.12C321.952 66.9987 322.073 66.9053 322.222 66.84C322.372 66.7653 322.535 66.714 322.712 66.686C322.899 66.658 323.081 66.644 323.258 66.644C323.454 66.644 323.646 66.6673 323.832 66.714C324.028 66.7513 324.206 66.8167 324.364 66.91C324.523 67.0033 324.654 67.1293 324.756 67.288C324.859 67.4373 324.92 67.6287 324.938 67.862H326.128C326.1 67.4233 326.007 67.0593 325.848 66.77C325.69 66.4713 325.475 66.238 325.204 66.07C324.943 65.8927 324.64 65.7713 324.294 65.706C323.949 65.6313 323.571 65.594 323.16 65.594C322.843 65.594 322.521 65.636 322.194 65.72C321.877 65.7947 321.588 65.916 321.326 66.084C321.074 66.2427 320.864 66.4527 320.696 66.714C320.538 66.9753 320.458 67.288 320.458 67.652C320.458 68.1187 320.575 68.4827 320.808 68.744C321.042 69.0053 321.331 69.2107 321.676 69.36C322.031 69.5 322.414 69.612 322.824 69.696C323.235 69.7707 323.613 69.8593 323.958 69.962C324.313 70.0553 324.607 70.1813 324.84 70.34C325.074 70.4987 325.19 70.732 325.19 71.04C325.19 71.264 325.134 71.4507 325.022 71.6C324.91 71.74 324.766 71.8473 324.588 71.922C324.42 71.9967 324.234 72.048 324.028 72.076C323.823 72.104 323.627 72.118 323.44 72.118C323.198 72.118 322.96 72.0947 322.726 72.048C322.502 72.0013 322.297 71.9267 322.11 71.824C321.933 71.712 321.788 71.5673 321.676 71.39C321.564 71.2033 321.504 70.9793 321.494 70.718ZM334.338 72.972C334.133 73.0933 333.848 73.154 333.484 73.154C333.176 73.154 332.929 73.07 332.742 72.902C332.565 72.7247 332.476 72.44 332.476 72.048C332.15 72.44 331.767 72.7247 331.328 72.902C330.899 73.07 330.432 73.154 329.928 73.154C329.602 73.154 329.289 73.1167 328.99 73.042C328.701 72.9673 328.449 72.8507 328.234 72.692C328.02 72.5333 327.847 72.328 327.716 72.076C327.595 71.8147 327.534 71.502 327.534 71.138C327.534 70.7273 327.604 70.3913 327.744 70.13C327.884 69.8687 328.066 69.6587 328.29 69.5C328.524 69.332 328.785 69.206 329.074 69.122C329.373 69.038 329.676 68.968 329.984 68.912C330.311 68.8467 330.619 68.8 330.908 68.772C331.207 68.7347 331.468 68.688 331.692 68.632C331.916 68.5667 332.094 68.478 332.224 68.366C332.355 68.2447 332.42 68.072 332.42 67.848C332.42 67.5867 332.369 67.3767 332.266 67.218C332.173 67.0593 332.047 66.938 331.888 66.854C331.739 66.77 331.566 66.714 331.37 66.686C331.184 66.658 330.997 66.644 330.81 66.644C330.306 66.644 329.886 66.742 329.55 66.938C329.214 67.1247 329.032 67.484 329.004 68.016H327.814C327.833 67.568 327.926 67.19 328.094 66.882C328.262 66.574 328.486 66.3267 328.766 66.14C329.046 65.944 329.364 65.804 329.718 65.72C330.082 65.636 330.47 65.594 330.88 65.594C331.207 65.594 331.529 65.6173 331.846 65.664C332.173 65.7107 332.467 65.8087 332.728 65.958C332.99 66.098 333.2 66.2987 333.358 66.56C333.517 66.8213 333.596 67.162 333.596 67.582V71.306C333.596 71.586 333.61 71.7913 333.638 71.922C333.676 72.0527 333.788 72.118 333.974 72.118C334.077 72.118 334.198 72.0947 334.338 72.048V72.972ZM332.406 69.262C332.257 69.374 332.061 69.458 331.818 69.514C331.576 69.5607 331.319 69.6027 331.048 69.64C330.787 69.668 330.521 69.7053 330.25 69.752C329.98 69.7893 329.737 69.8547 329.522 69.948C329.308 70.0413 329.13 70.1767 328.99 70.354C328.86 70.522 328.794 70.7553 328.794 71.054C328.794 71.25 328.832 71.418 328.906 71.558C328.99 71.6887 329.093 71.796 329.214 71.88C329.345 71.964 329.494 72.0247 329.662 72.062C329.83 72.0993 330.008 72.118 330.194 72.118C330.586 72.118 330.922 72.0667 331.202 71.964C331.482 71.852 331.711 71.7167 331.888 71.558C332.066 71.39 332.196 71.2127 332.28 71.026C332.364 70.83 332.406 70.648 332.406 70.48V69.262ZM335.648 63.004V73H336.838V72.034H336.866C336.997 72.2487 337.155 72.4307 337.342 72.58C337.538 72.72 337.743 72.832 337.958 72.916C338.173 73 338.387 73.0607 338.602 73.098C338.826 73.1353 339.027 73.154 339.204 73.154C339.755 73.154 340.235 73.056 340.646 72.86C341.066 72.664 341.411 72.398 341.682 72.062C341.962 71.7167 342.167 71.3153 342.298 70.858C342.438 70.4007 342.508 69.9153 342.508 69.402C342.508 68.8887 342.438 68.4033 342.298 67.946C342.158 67.4887 341.948 67.0873 341.668 66.742C341.397 66.3873 341.052 66.1073 340.632 65.902C340.221 65.6967 339.736 65.594 339.176 65.594C338.672 65.594 338.21 65.6873 337.79 65.874C337.37 66.0513 337.062 66.3407 336.866 66.742H336.838V63.004H335.648ZM341.248 69.318C341.248 69.6727 341.211 70.018 341.136 70.354C341.061 70.69 340.94 70.9887 340.772 71.25C340.604 71.5113 340.38 71.7213 340.1 71.88C339.829 72.0387 339.489 72.118 339.078 72.118C338.667 72.118 338.317 72.0433 338.028 71.894C337.739 71.7353 337.501 71.53 337.314 71.278C337.137 71.026 337.006 70.7367 336.922 70.41C336.838 70.074 336.796 69.7287 336.796 69.374C336.796 69.038 336.833 68.7067 336.908 68.38C336.992 68.0533 337.123 67.764 337.3 67.512C337.477 67.2507 337.706 67.0407 337.986 66.882C338.266 66.7233 338.607 66.644 339.008 66.644C339.391 66.644 339.722 66.7187 340.002 66.868C340.291 67.0173 340.525 67.218 340.702 67.47C340.889 67.722 341.024 68.0113 341.108 68.338C341.201 68.6553 341.248 68.982 341.248 69.318ZM344.135 63.004V73H345.325V63.004H344.135ZM352.354 68.688H348.196C348.215 68.408 348.276 68.1467 348.378 67.904C348.481 67.652 348.621 67.4327 348.798 67.246C348.976 67.0593 349.186 66.9147 349.428 66.812C349.68 66.7 349.96 66.644 350.268 66.644C350.567 66.644 350.838 66.7 351.08 66.812C351.332 66.9147 351.547 67.0593 351.724 67.246C351.911 67.4233 352.056 67.638 352.158 67.89C352.27 68.142 352.336 68.408 352.354 68.688ZM353.502 70.704H352.326C352.224 71.18 352.009 71.5347 351.682 71.768C351.365 72.0013 350.954 72.118 350.45 72.118C350.058 72.118 349.718 72.0527 349.428 71.922C349.139 71.7913 348.901 71.6187 348.714 71.404C348.528 71.18 348.392 70.928 348.308 70.648C348.224 70.3587 348.187 70.0553 348.196 69.738H353.614C353.633 69.2993 353.591 68.8373 353.488 68.352C353.395 67.8667 353.218 67.4187 352.956 67.008C352.704 66.5973 352.364 66.2613 351.934 66C351.514 65.7293 350.982 65.594 350.338 65.594C349.844 65.594 349.386 65.6873 348.966 65.874C348.556 66.0607 348.196 66.322 347.888 66.658C347.59 66.994 347.356 67.3907 347.188 67.848C347.02 68.3053 346.936 68.8093 346.936 69.36C346.955 69.9107 347.034 70.4193 347.174 70.886C347.324 71.3527 347.543 71.754 347.832 72.09C348.122 72.426 348.476 72.6873 348.896 72.874C349.326 73.0607 349.83 73.154 350.408 73.154C351.23 73.154 351.911 72.9487 352.452 72.538C352.994 72.1273 353.344 71.516 353.502 70.704ZM355.876 69.444C355.876 69.0893 355.913 68.744 355.988 68.408C356.062 68.072 356.184 67.7733 356.352 67.512C356.52 67.2507 356.744 67.0407 357.024 66.882C357.304 66.7233 357.644 66.644 358.046 66.644C358.456 66.644 358.806 66.7233 359.096 66.882C359.385 67.0313 359.618 67.232 359.796 67.484C359.982 67.736 360.118 68.03 360.202 68.366C360.286 68.6927 360.328 69.0333 360.328 69.388C360.328 69.724 360.286 70.0553 360.202 70.382C360.127 70.7087 360.001 71.0027 359.824 71.264C359.646 71.516 359.418 71.7213 359.138 71.88C358.858 72.0387 358.517 72.118 358.116 72.118C357.733 72.118 357.397 72.0433 357.108 71.894C356.828 71.7447 356.594 71.544 356.408 71.292C356.23 71.04 356.095 70.7553 356.002 70.438C355.918 70.1113 355.876 69.78 355.876 69.444ZM361.476 73V63.004H360.286V66.728H360.258C360.127 66.5133 359.964 66.336 359.768 66.196C359.581 66.0467 359.38 65.93 359.166 65.846C358.951 65.7527 358.736 65.6873 358.522 65.65C358.307 65.6127 358.106 65.594 357.92 65.594C357.369 65.594 356.884 65.6967 356.464 65.902C356.053 66.098 355.708 66.3687 355.428 66.714C355.157 67.05 354.952 67.4467 354.812 67.904C354.681 68.3613 354.616 68.8467 354.616 69.36C354.616 69.8733 354.686 70.3587 354.826 70.816C354.966 71.2733 355.171 71.6747 355.442 72.02C355.722 72.3653 356.067 72.6407 356.478 72.846C356.898 73.0513 357.388 73.154 357.948 73.154C358.452 73.154 358.914 73.0653 359.334 72.888C359.754 72.7107 360.062 72.4213 360.258 72.02H360.286V73H361.476Z" fill="#8D8D8D"/>
<g filter="url(#filter0_d_2756_880)">
<path fill-rule="evenodd" clip-rule="evenodd" d="M154.331 228.38C154.047 228.021 153.702 227.287 153.088 226.396C152.74 225.892 151.877 224.943 151.62 224.461C151.397 224.035 151.421 223.844 151.474 223.491C151.568 222.863 152.212 222.374 152.899 222.44C153.418 222.489 153.858 222.832 154.254 223.156C154.493 223.351 154.787 223.73 154.964 223.944C155.127 224.14 155.167 224.221 155.341 224.453C155.571 224.76 155.643 224.912 155.555 224.574C155.484 224.078 155.368 223.231 155.2 222.482C155.072 221.914 155.041 221.825 154.919 221.389C154.79 220.925 154.724 220.6 154.603 220.108C154.519 219.76 154.368 219.049 154.327 218.649C154.27 218.102 154.24 217.21 154.591 216.8C154.866 216.479 155.497 216.382 155.888 216.58C156.4 216.839 156.691 217.583 156.824 217.88C157.063 218.414 157.211 219.031 157.34 219.841C157.504 220.872 157.806 222.303 157.816 222.604C157.84 222.235 157.748 221.458 157.812 221.104C157.87 220.783 158.14 220.41 158.478 220.309C158.764 220.224 159.099 220.193 159.394 220.254C159.707 220.318 160.037 220.542 160.16 220.753C160.522 221.377 160.529 222.652 160.544 222.584C160.63 222.208 160.615 221.355 160.828 221C160.968 220.766 161.325 220.555 161.515 220.521C161.809 220.469 162.17 220.453 162.479 220.513C162.728 220.562 163.065 220.858 163.156 221C163.374 221.344 163.498 222.317 163.535 222.658C163.55 222.799 163.609 222.266 163.828 221.922C164.234 221.283 165.671 221.159 165.726 222.561C165.751 223.215 165.746 223.185 165.746 223.625C165.746 224.142 165.734 224.453 165.706 224.827C165.675 225.227 165.589 226.131 165.464 226.569C165.378 226.87 165.093 227.547 164.812 227.953C164.812 227.953 163.738 229.203 163.621 229.766C163.503 230.328 163.542 230.332 163.519 230.731C163.496 231.129 163.64 231.653 163.64 231.653C163.64 231.653 162.838 231.757 162.406 231.688C162.015 231.625 161.531 230.847 161.406 230.609C161.234 230.281 160.867 230.344 160.724 230.586C160.499 230.969 160.015 231.656 159.673 231.699C159.005 231.783 157.619 231.73 156.534 231.719C156.534 231.719 156.719 230.708 156.307 230.361C156.002 230.102 155.477 229.577 155.163 229.301L154.331 228.38Z" fill="black" fill-opacity="0.01"/>
</g>
<g filter="url(#filter1_d_2756_880)">
<path fill-rule="evenodd" clip-rule="evenodd" d="M154.331 228.38C154.047 228.021 153.702 227.287 153.088 226.396C152.74 225.892 151.877 224.943 151.62 224.461C151.397 224.035 151.421 223.844 151.474 223.491C151.568 222.863 152.212 222.374 152.899 222.44C153.418 222.489 153.858 222.832 154.254 223.156C154.493 223.351 154.787 223.73 154.964 223.944C155.127 224.14 155.167 224.221 155.341 224.453C155.571 224.76 155.643 224.912 155.555 224.574C155.484 224.078 155.368 223.231 155.2 222.482C155.072 221.914 155.041 221.825 154.919 221.389C154.79 220.925 154.724 220.6 154.603 220.108C154.519 219.76 154.368 219.049 154.327 218.649C154.27 218.102 154.24 217.21 154.591 216.8C154.866 216.479 155.497 216.382 155.888 216.58C156.4 216.839 156.691 217.583 156.824 217.88C157.063 218.414 157.211 219.031 157.34 219.841C157.504 220.872 157.806 222.303 157.816 222.604C157.84 222.235 157.748 221.458 157.812 221.104C157.87 220.783 158.14 220.41 158.478 220.309C158.764 220.224 159.099 220.193 159.394 220.254C159.707 220.318 160.037 220.542 160.16 220.753C160.522 221.377 160.529 222.652 160.544 222.584C160.63 222.208 160.615 221.355 160.828 221C160.968 220.766 161.325 220.555 161.515 220.521C161.809 220.469 162.17 220.453 162.479 220.513C162.728 220.562 163.065 220.858 163.156 221C163.374 221.344 163.498 222.317 163.535 222.658C163.55 222.799 163.609 222.266 163.828 221.922C164.234 221.283 165.671 221.159 165.726 222.561C165.751 223.215 165.746 223.185 165.746 223.625C165.746 224.142 165.734 224.453 165.706 224.827C165.675 225.227 165.589 226.131 165.464 226.569C165.378 226.87 165.093 227.547 164.812 227.953C164.812 227.953 163.738 229.203 163.621 229.766C163.503 230.328 163.542 230.332 163.519 230.731C163.496 231.129 163.64 231.653 163.64 231.653C163.64 231.653 162.838 231.757 162.406 231.688C162.015 231.625 161.531 230.847 161.406 230.609C161.234 230.281 160.867 230.344 160.724 230.586C160.499 230.969 160.015 231.656 159.673 231.699C159.005 231.783 157.619 231.73 156.534 231.719C156.534 231.719 156.719 230.708 156.307 230.361C156.002 230.102 155.477 229.577 155.163 229.301L154.331 228.38Z" fill="black" fill-opacity="0.01"/>
</g>
<path fill-rule="evenodd" clip-rule="evenodd" d="M163.724 221.471C164.044 221.182 164.521 221.037 164.966 221.105C165.623 221.207 166.069 221.733 166.101 222.547C166.116 222.935 166.121 223.087 166.122 223.241C166.122 223.297 166.122 223.342 166.122 223.463C166.122 223.536 166.122 223.536 166.121 223.625C166.121 224.132 166.11 224.455 166.08 224.856C166.026 225.563 165.936 226.282 165.825 226.672C165.709 227.078 165.393 227.773 165.097 228.197C165.062 228.238 164.998 228.314 164.916 228.415C164.779 228.584 164.642 228.761 164.515 228.936C164.448 229.028 164.385 229.117 164.328 229.203C164.136 229.49 164.014 229.722 163.988 229.843C163.93 230.122 163.912 230.25 163.906 230.385C163.905 230.426 163.905 230.426 163.904 230.473C163.901 230.6 163.9 230.655 163.894 230.753C163.891 230.809 163.892 230.874 163.897 230.945C163.905 231.058 163.922 231.182 163.947 231.309C163.968 231.419 163.989 231.506 164.002 231.554L164.116 231.969L163.689 232.025C163.628 232.033 163.525 232.044 163.397 232.056C163.226 232.071 163.058 232.081 162.898 232.085C162.684 232.09 162.499 232.082 162.347 232.058C161.866 231.981 161.391 231.385 161.074 230.783C160.643 231.465 160.175 232.014 159.72 232.071C159.295 232.124 158.702 232.13 157.542 232.11C157.435 232.108 157.435 232.108 157.328 232.106C156.901 232.099 156.74 232.096 156.531 232.094L156.085 232.089L156.166 231.651C156.169 231.631 156.176 231.588 156.183 231.529C156.202 231.357 156.208 231.179 156.192 231.02C156.172 230.826 156.123 230.696 156.065 230.647C155.926 230.529 155.774 230.388 155.468 230.097C155.139 229.785 155.036 229.688 154.885 229.552L154.053 228.631C153.894 228.431 153.104 227.08 152.78 226.609C152.66 226.435 152.605 226.366 152.1 225.744C152.075 225.713 152.075 225.713 152.05 225.682C151.639 225.174 151.419 224.879 151.288 224.635C151.052 224.183 151.027 223.947 151.104 223.435C151.229 222.601 152.059 221.982 152.935 222.067C153.468 222.117 153.857 222.346 154.492 222.865C154.579 222.936 154.67 223.025 154.77 223.133C154.824 223.191 154.879 223.254 154.938 223.323C154.953 223.34 154.974 223.365 154.997 223.393C154.978 223.284 154.958 223.175 154.935 223.051C154.902 222.879 154.869 222.716 154.835 222.564C154.772 222.288 154.732 222.122 154.692 221.968C154.684 221.941 154.684 221.941 154.677 221.914C154.655 221.833 154.553 221.469 154.558 221.489C154.504 221.295 154.459 221.117 154.407 220.901C154.395 220.853 154.395 220.853 154.384 220.804C154.317 220.519 154.281 220.365 154.239 220.196C154.121 219.708 153.992 219.049 153.955 218.688C153.858 217.757 153.922 217.006 154.307 216.556C154.694 216.103 155.512 215.969 156.058 216.245C156.372 216.404 156.622 216.684 156.841 217.058C156.912 217.179 156.976 217.305 157.041 217.444C157.078 217.525 157.181 217.758 157.167 217.727C157.409 218.267 157.568 218.887 157.711 219.782C157.737 219.944 157.767 220.122 157.803 220.325C157.96 220.15 158.157 220.014 158.372 219.949C158.732 219.842 159.126 219.815 159.47 219.886C159.876 219.969 160.302 220.251 160.485 220.565C160.513 220.614 160.54 220.666 160.565 220.721C160.773 220.446 161.16 220.204 161.45 220.152C161.817 220.087 162.215 220.08 162.552 220.145C162.879 220.209 163.307 220.54 163.473 220.799C163.574 220.958 163.656 221.19 163.724 221.471Z" fill="black"/>
<path fill-rule="evenodd" clip-rule="evenodd" d="M154.331 228.38C154.047 228.021 153.702 227.287 153.088 226.396C152.74 225.892 151.877 224.943 151.62 224.461C151.397 224.035 151.421 223.844 151.474 223.491C151.568 222.863 152.212 222.374 152.899 222.44C153.418 222.489 153.858 222.832 154.254 223.156C154.493 223.351 154.787 223.73 154.964 223.944C155.127 224.14 155.167 224.221 155.341 224.453C155.571 224.76 155.643 224.912 155.555 224.574C155.484 224.078 155.368 223.231 155.2 222.482C155.072 221.914 155.041 221.825 154.919 221.389C154.79 220.925 154.724 220.6 154.603 220.108C154.519 219.76 154.368 219.049 154.327 218.649C154.27 218.102 154.24 217.21 154.591 216.8C154.866 216.479 155.497 216.382 155.888 216.58C156.4 216.839 156.691 217.583 156.824 217.88C157.063 218.414 157.211 219.031 157.34 219.841C157.504 220.872 157.806 222.303 157.816 222.604C157.826 222.905 157.748 221.458 157.812 221.104C157.87 220.783 158.14 220.41 158.478 220.309C158.764 220.224 159.099 220.193 159.394 220.254C159.707 220.318 160.037 220.542 160.16 220.753C160.522 221.377 160.529 222.652 160.544 222.584C160.63 222.208 160.615 221.355 160.828 221C160.968 220.766 161.325 220.555 161.515 220.521C161.809 220.469 162.17 220.453 162.479 220.513C162.728 220.562 163.065 220.858 163.156 221C163.374 221.344 163.498 222.317 163.535 222.658C163.55 222.799 163.609 222.266 163.828 221.922C164.234 221.283 165.671 221.159 165.726 222.561C165.751 223.215 165.746 223.185 165.746 223.625C165.746 224.142 165.734 224.453 165.706 224.827C165.675 225.227 165.589 226.131 165.464 226.569C165.378 226.87 165.093 227.547 164.812 227.953C164.812 227.953 163.738 229.203 163.621 229.766C163.503 230.328 163.542 230.332 163.519 230.731C163.496 231.129 163.64 231.653 163.64 231.653C163.64 231.653 162.838 231.757 162.406 231.688C162.015 231.625 161.531 230.847 161.406 230.609C161.234 230.281 160.867 230.344 160.724 230.586C160.499 230.969 160.015 231.656 159.673 231.699C159.005 231.783 157.619 231.73 156.534 231.719C156.534 231.719 156.719 230.708 156.307 230.361C156.002 230.102 155.477 229.577 155.163 229.301L154.331 228.38Z" fill="white" stroke="black" stroke-width="0.75"/>
<path d="M162.566 228.75V225.25" stroke="black" stroke-width="0.75" stroke-linecap="round"/>
<path d="M160.551 228.746L160.535 225.246" stroke="black" stroke-width="0.75" stroke-linecap="round"/>
<path d="M158.555 228.75L158.576 225.25" stroke="black" stroke-width="0.75" stroke-linecap="round"/>
<line x1="223.5" y1="2.18557e-08" x2="223.5" y2="272" stroke="#E0E0E0"/>
<line x1="446.5" y1="2.18557e-08" x2="446.5" y2="272" stroke="#E0E0E0"/>
<line y1="135.5" x2="760" y2="135.5" stroke="#E0E0E0"/>
</g>
<defs>
<filter id="filter0_d_2756_880" x="149.939" y="215.977" width="17.3083" height="18.2681" filterUnits="userSpaceOnUse" color-interpolation-filters="sRGB">
<feFlood flood-opacity="0" result="BackgroundImageFix"/>
<feColorMatrix in="SourceAlpha" type="matrix" values="0 0 0 0 0 0 0 0 0 0 0 0 0 0 0 0 0 0 127 0" result="hardAlpha"/>
<feOffset dy="1"/>
<feGaussianBlur stdDeviation="0.75"/>
<feColorMatrix type="matrix" values="0 0 0 0 0 0 0 0 0 0 0 0 0 0 0 0 0 0 0.15 0"/>
<feBlend mode="normal" in2="BackgroundImageFix" result="effect1_dropShadow_2756_880"/>
<feBlend mode="normal" in="SourceGraphic" in2="effect1_dropShadow_2756_880" result="shape"/>
</filter>
<filter id="filter1_d_2756_880" x="150.439" y="216.227" width="16.3083" height="17.2681" filterUnits="userSpaceOnUse" color-interpolation-filters="sRGB">
<feFlood flood-opacity="0" result="BackgroundImageFix"/>
<feColorMatrix in="SourceAlpha" type="matrix" values="0 0 0 0 0 0 0 0 0 0 0 0 0 0 0 0 0 0 127 0" result="hardAlpha"/>
<feOffset dy="0.75"/>
<feGaussianBlur stdDeviation="0.5"/>
<feColorMatrix type="matrix" values="0 0 0 0 0 0 0 0 0 0 0 0 0 0 0 0 0 0 0.2 0"/>
<feBlend mode="normal" in2="BackgroundImageFix" result="effect1_dropShadow_2756_880"/>
<feBlend mode="normal" in="SourceGraphic" in2="effect1_dropShadow_2756_880" result="shape"/>
</filter>
<clipPath id="clip0_2756_880">
<rect width="669" height="272" fill="white"/>
</clipPath>
</defs>
</svg>
